<svg width="512" height="512" viewBox="0 0 512 512" fill="none" xmlns="http://www.w3.org/2000/svg">
<g clip-path="url(#clip0_4_10)">
<path d="M36.4943 279.735C35.2519 279.791 34.066 279.397 33.1624 278.607C32.3718 277.649 32.033 276.465 32.1459 275.225V160.215C31.9765 158.974 32.3718 157.79 33.1624 156.832C34.1225 156.099 35.2519 155.761 36.4378 155.874H48.9745C51.3463 155.648 53.4923 157.283 53.8311 159.651L55.0735 164.161C58.6877 160.666 62.9231 157.96 67.6102 156.099C72.4103 154.182 77.4928 153.168 82.6317 153.168C92.9096 152.829 102.736 157.396 109.06 165.458C116.063 175.098 119.508 186.768 118.887 198.664C119.056 207.29 117.418 215.859 114.03 223.752C111.206 230.348 106.689 236.042 100.872 240.271C95.2814 244.104 88.5612 246.078 81.7846 245.908C77.1539 245.908 72.5797 245.176 68.2314 243.653C64.2219 242.3 60.5512 240.214 57.3324 237.452V275.337C57.4453 276.521 57.1065 277.762 56.3723 278.72C55.4123 279.453 54.1699 279.791 52.984 279.679H36.4943V279.735ZM74.4998 226.966C80.0905 227.36 85.4553 224.88 88.7871 220.369C92.2884 214.055 93.8696 206.895 93.3613 199.679C93.9261 192.406 92.3448 185.134 88.8436 178.763C85.5118 174.196 80.0905 171.716 74.4433 172.167C68.4573 172.167 62.6407 173.802 57.5018 176.846V222.23C62.5842 225.387 68.4573 227.022 74.4433 227.022H74.4998V226.966Z" fill="#1399FF"/>
<path d="M140.346 244.104C138.313 244.499 136.393 243.146 135.997 241.116C135.941 240.665 135.941 240.214 135.997 239.763V160.215C135.885 158.974 136.223 157.79 137.014 156.832C137.974 156.099 139.103 155.761 140.289 155.874H152.77C155.141 155.648 157.287 157.283 157.626 159.651L159.885 168.897C163.612 164.556 168.017 160.891 172.986 158.072C177.052 155.93 181.514 154.859 186.088 154.859H188.516C189.759 154.746 190.945 155.084 191.961 155.817C192.752 156.776 193.09 157.96 192.978 159.2V173.745C193.09 174.929 192.752 176.057 192.017 177.015C191.057 177.804 189.872 178.143 188.629 178.03H180.667C177.391 178.086 174.172 178.481 170.954 179.158C167.622 179.778 164.346 180.736 161.24 182.033V239.82C161.353 241.004 161.014 242.131 160.28 243.09C159.32 243.879 158.134 244.217 156.892 244.104H140.346Z" fill="#1399FF"/>
<path d="M217.995 142.118C214.154 142.287 210.371 140.99 207.434 138.509C204.724 135.972 203.255 132.364 203.425 128.643C203.255 124.922 204.724 121.258 207.434 118.721C213.646 113.76 222.399 113.76 228.611 118.721C231.322 121.258 232.79 124.866 232.621 128.587C232.79 132.308 231.322 135.916 228.611 138.453C225.675 140.99 221.891 142.287 217.995 142.118ZM209.693 244.161C207.66 244.555 205.74 243.202 205.345 241.173C205.288 240.722 205.288 240.271 205.345 239.82V160.215C205.232 158.974 205.571 157.79 206.361 156.832C207.321 156.099 208.451 155.761 209.637 155.874H226.296C227.482 155.761 228.724 156.099 229.684 156.832C230.418 157.79 230.757 159.031 230.644 160.215V239.82C230.757 241.004 230.418 242.131 229.684 243.09C228.724 243.879 227.538 244.217 226.296 244.104H209.693V244.161Z" fill="#1399FF"/>
<path d="M256.452 244.104C254.419 244.499 252.499 243.146 252.103 241.116C252.047 240.665 252.047 240.214 252.103 239.763V160.215C251.934 158.974 252.329 157.79 253.12 156.832C254.08 156.099 255.209 155.761 256.395 155.874H268.876C271.247 155.648 273.393 157.283 273.732 159.651L275.144 164.33C280.283 160.778 285.817 157.903 291.69 155.761C296.49 154.07 301.573 153.224 306.712 153.168C315.634 152.378 324.161 156.776 328.736 164.443C333.875 160.891 339.465 158.072 345.395 155.986C350.59 154.239 356.068 153.393 361.546 153.393C368.492 152.998 375.268 155.423 380.351 160.158C385.038 165.289 387.41 172.054 387.014 178.988V239.82C387.127 241.004 386.789 242.131 386.054 243.09C385.094 243.879 383.909 244.217 382.666 244.104H366.233C364.2 244.499 362.28 243.146 361.885 241.116C361.828 240.665 361.828 240.214 361.885 239.763V184.288C361.885 176.451 358.383 172.505 351.324 172.505C344.774 172.561 338.279 174.14 332.406 177.015V239.82C332.519 241.004 332.18 242.131 331.446 243.09C330.486 243.879 329.3 244.217 328.058 244.104H311.455C309.422 244.499 307.502 243.146 307.107 241.116C307.05 240.665 307.05 240.214 307.107 239.763V184.288C307.107 176.451 303.606 172.505 296.547 172.505C289.883 172.505 283.389 174.14 277.459 177.184V239.763C277.572 240.947 277.233 242.075 276.499 243.033C275.539 243.822 274.353 244.161 273.111 244.048H256.452V244.104Z" fill="#1399FF"/>
<path d="M447.439 246.698C435.298 247.487 423.326 243.259 414.403 234.915C406.271 225.613 402.205 213.435 403.109 201.088C402.318 188.291 406.441 175.719 414.629 165.852C423.156 157.058 435.185 152.378 447.439 153.055C456.531 152.491 465.51 155.253 472.682 160.835C478.781 166.022 482.113 173.689 481.774 181.695C482.169 189.531 478.442 196.973 471.948 201.314C463.195 206.331 453.143 208.643 443.091 207.966C437.387 208.023 431.684 207.403 426.149 206.05C426.149 212.307 428.691 218.227 433.152 222.625C438.404 226.345 444.842 228.15 451.279 227.642C454.442 227.642 457.604 227.417 460.71 227.022C465.002 226.345 469.294 225.443 473.473 224.316H475.336C477.313 224.316 478.273 225.669 478.273 228.319V236.268C478.386 237.621 478.103 238.974 477.482 240.158C476.692 241.116 475.619 241.793 474.433 242.131C465.793 245.288 456.644 246.867 447.439 246.698ZM441.792 192.406C446.253 192.744 450.658 191.786 454.611 189.7C457.322 187.84 458.847 184.739 458.621 181.469C458.621 174.196 454.272 170.588 445.632 170.588C434.507 170.588 428.126 177.41 426.375 190.997C431.401 191.955 436.54 192.463 441.679 192.406H441.792Z" fill="#1399FF"/>
<path d="M438.347 341.243C388.878 377.663 317.159 397 255.435 397C172.93 397.451 93.2484 367.176 31.9765 312.039C27.3458 307.867 31.4683 302.173 37.059 305.387C105.164 344.231 182.191 364.583 260.631 364.527C319.135 364.188 377.019 352.405 430.95 329.742C439.533 326.19 446.536 334.985 438.347 341.243Z" fill="#1399FF"/>
<path d="M459.185 318.072C452.861 310.01 417.396 314.238 401.415 316.155C396.558 316.719 395.768 312.547 400.172 309.502C428.408 289.657 474.885 295.408 480.249 302.06C485.614 308.713 478.838 355.112 452.014 377.268C447.948 380.651 444.051 378.846 445.858 374.336C451.901 359.171 465.284 325.908 459.185 318.072Z" fill="#1399FF"/>
</g>
<defs>
<clipPath id="clip0_4_10">
<rect width="452" height="282" fill="white" transform="translate(30 115)"/>
</clipPath>
</defs>
</svg>
