<svg width="512" height="512" viewBox="0 0 512 512" fill="none" xmlns="http://www.w3.org/2000/svg">
<path fill-rule="evenodd" clip-rule="evenodd" d="M461.853 178.143C461.853 173.211 461.853 168.28 461.83 163.349C461.807 159.197 461.761 155.046 461.647 150.894C461.406 141.846 460.867 132.729 459.261 123.784C457.633 114.701 454.961 106.249 450.763 97.9919C446.635 89.8839 441.245 82.4755 434.811 76.0419C428.378 69.6083 420.958 64.2182 412.85 60.0897C404.604 55.8924 396.152 53.2317 387.081 51.5918C378.136 49.9863 369.007 49.4473 359.959 49.2064C355.807 49.0917 351.656 49.0459 347.504 49.0229C342.573 49 337.642 49 332.71 49H178.143C173.211 49 168.28 49 163.349 49.0229C159.197 49.0459 155.046 49.0917 150.894 49.2064C141.846 49.4587 132.717 49.9863 123.772 51.6033C114.69 53.2317 106.249 55.9038 98.0034 60.1012C89.8954 64.2297 82.4755 69.6197 76.0419 76.0534C69.6083 82.487 64.2182 89.8954 60.0897 98.0034C55.8924 106.26 53.2203 114.712 51.5918 123.795C49.9863 132.74 49.4473 141.869 49.2064 150.906C49.0917 155.057 49.0459 159.209 49.0229 163.36C49 168.28 49 173.211 49 178.143V332.699C49 337.63 49 342.562 49.0229 347.493C49.0459 351.644 49.0917 355.796 49.2064 359.947C49.4473 368.996 49.9863 378.113 51.5918 387.058C53.2203 396.141 55.8924 404.593 60.0897 412.85C64.2182 420.958 69.6083 428.366 76.0419 434.8C82.4755 441.233 89.8954 446.624 98.0034 450.752C106.249 454.949 114.701 457.61 123.772 459.25C132.717 460.855 141.846 461.394 150.894 461.635C155.046 461.75 159.197 461.796 163.349 461.819C168.28 461.853 173.211 461.842 178.143 461.842H332.699C337.63 461.842 342.562 461.842 347.493 461.819C351.644 461.796 355.796 461.75 359.947 461.635C368.996 461.394 378.124 460.855 387.069 459.25C396.152 457.621 404.593 454.949 412.838 450.752C420.946 446.624 428.366 441.233 434.8 434.8C441.233 428.366 446.623 420.958 450.752 412.85C454.949 404.593 457.621 396.141 459.25 387.058C460.855 378.113 461.394 368.984 461.635 359.947C461.75 355.796 461.796 351.644 461.819 347.493C461.853 342.562 461.842 337.63 461.842 332.699V178.143H461.853Z" fill="url(#paint0_linear_24_2)"/>
<path fill-rule="evenodd" clip-rule="evenodd" d="M340.864 112.075C339.867 112.167 331.002 113.738 329.935 113.956L207.226 138.715L207.18 138.727C203.98 139.403 201.469 140.539 199.531 142.167C197.191 144.128 195.895 146.904 195.402 150.138C195.299 150.826 195.127 152.225 195.127 154.289C195.127 154.289 195.127 279.659 195.127 307.87C195.127 311.46 194.84 314.946 192.409 317.917C189.978 320.887 186.973 321.781 183.453 322.492C180.78 323.031 178.108 323.57 175.436 324.109C165.298 326.151 158.704 327.538 152.729 329.855C147.018 332.068 142.741 334.889 139.335 338.467C132.58 345.543 129.839 355.142 130.779 364.133C131.582 371.805 135.034 379.145 140.963 384.569C144.965 388.239 149.966 391.026 155.86 392.207C161.973 393.434 168.487 393.01 178.005 391.083C183.074 390.063 187.822 388.469 192.34 385.796C196.813 383.159 200.643 379.638 203.636 375.349C206.641 371.048 208.579 366.266 209.646 361.186C210.747 355.945 211.01 351.209 211.01 345.979V212.777C211.01 205.643 213.029 203.763 218.786 202.363C218.786 202.363 320.784 181.79 325.543 180.861C332.183 179.588 335.314 181.48 335.314 188.441V279.372C335.314 282.973 335.279 286.62 332.825 289.602C330.394 292.572 327.389 293.466 323.868 294.177C321.196 294.716 318.524 295.255 315.852 295.794C305.714 297.836 299.12 299.223 293.145 301.54C287.434 303.753 283.157 306.575 279.751 310.153C272.996 317.228 270.014 326.827 270.954 335.818C271.757 343.49 275.45 350.83 281.379 356.255C285.381 359.924 290.382 362.631 296.276 363.823C302.389 365.051 308.903 364.615 318.421 362.7C323.49 361.679 328.238 360.154 332.756 357.482C337.229 354.844 341.059 351.323 344.052 347.034C347.057 342.734 348.995 337.951 350.062 332.871C351.163 327.63 351.209 322.894 351.209 317.664V122.924C351.231 115.859 347.504 111.501 340.864 112.075Z" fill="white"/>
<defs>
<linearGradient id="paint0_linear_24_2" x1="255.427" y1="460.253" x2="255.427" y2="57.8977" gradientUnits="userSpaceOnUse">
<stop stop-color="#FA233B"/>
<stop offset="1" stop-color="#FB5C74"/>
</linearGradient>
</defs>
</svg>
