<svg width="16" height="16" viewBox="0 0 16 16" fill="none" xmlns="http://www.w3.org/2000/svg">
<g clip-path="url(#clip0_34_14)">
<path d="M16 15C16 15.5527 15.5527 16 15 16H2.33333C1.04667 16 0 14.9533 0 13.6667V1C0.022 -0.314665 1.978 -0.313998 2 1V13.6667C2 13.8507 2.14933 14 2.33333 14H15C15.5527 14 16 14.4473 16 15ZM13.6667 3.33333H11.6667C10.352 3.35533 10.3527 5.31134 11.6667 5.33333H12.5653L10.626 7.236C10.496 7.366 10.2847 7.366 10.154 7.236C10.114 7.196 9.30333 6.61667 9.30333 6.61667C8.38933 5.774 6.96133 5.796 6.09933 6.658L3.652 8.934C3.248 9.31 3.22467 9.94334 3.60067 10.3473C3.978 10.7527 4.61 10.774 5.014 10.3987L7.48733 8.09734C7.61733 7.968 7.82867 7.96734 7.95933 8.09734C7.99933 8.13734 8.81 8.71667 8.81 8.71667C9.72533 9.55934 11.1533 9.53667 12.0333 8.65667L14 6.728V7.66734C14.022 8.982 15.978 8.98134 16 7.66734V5.66734C16 4.38067 14.9533 3.33333 13.6667 3.33333Z" fill="currentColor"/>
</g>
<defs>
<clipPath id="clip0_34_14">
<rect width="16" height="16" fill="white"/>
</clipPath>
</defs>
</svg>
