<svg viewBox="0 0 16 16" fill="none" xmlns="http://www.w3.org/2000/svg">
<g clip-path="url(#clip0_34_26)">
<path d="M12.6667 8.00003C12.6667 8.9205 13.4129 9.66669 14.3333 9.66669C15.2538 9.66669 16 8.9205 16 8.00003C16 7.07956 15.2538 6.33337 14.3333 6.33337C13.4129 6.33337 12.6667 7.07956 12.6667 8.00003Z" fill="currentColor"/>
<path d="M6.33334 8.00003C6.33334 8.9205 7.07953 9.66669 8 9.66669C8.92047 9.66669 9.66666 8.9205 9.66666 8.00003C9.66666 7.07956 8.92047 6.33337 8 6.33337C7.07953 6.33337 6.33334 7.07956 6.33334 8.00003Z" fill="currentColor"/>
<path d="M8.80822e-07 8.00003C8.40587e-07 8.9205 0.746188 9.66669 1.66666 9.66669C2.58713 9.66669 3.33331 8.9205 3.33331 8.00003C3.33331 7.07956 2.58713 6.33337 1.66666 6.33337C0.746189 6.33337 9.21057e-07 7.07956 8.80822e-07 8.00003Z" fill="currentColor"/>
</g>
<defs>
<clipPath id="clip0_34_26">
<rect width="16" height="16" fill="white" transform="translate(16) rotate(90)"/>
</clipPath>
</defs>
</svg>
