<svg width="16" height="16" viewBox="0 0 16 16" fill="none" xmlns="http://www.w3.org/2000/svg">
<g clip-path="url(#clip0_381_1074)">
<path d="M5.33447 14.5H2.27382C2.12338 14.4996 2.0015 14.3778 2.00116 14.2273V2.77266C2.00153 2.62222 2.12338 2.50034 2.27382 2.5H5.33447C5.88675 2.5 6.33447 2.05228 6.33447 1.5C6.33447 0.947719 5.88675 0.5 5.33447 0.5H2.27382C1.01925 0.501469 0.00262842 1.51812 0.00115967 2.77266V14.2273C0.00262842 15.4819 1.01925 16.4985 2.27382 16.5H5.33447C5.88675 16.5 6.33447 16.0523 6.33447 15.5C6.33447 14.9477 5.88675 14.5 5.33447 14.5Z" fill="currentColor"/>
<path d="M15.1223 6.37866L12.5343 3.79266C12.1436 3.40219 11.5104 3.40235 11.1199 3.793C10.7295 4.18366 10.7296 4.81688 11.1203 5.20735L13.3949 7.48135L4.33429 7.5C3.78201 7.5 3.33429 7.94772 3.33429 8.5C3.33429 9.05228 3.78201 9.5 4.33429 9.5L13.4316 9.48335L11.1203 11.7947C10.744 12.1989 10.7666 12.8317 11.1709 13.208C11.5551 13.5657 12.1504 13.5654 12.5343 13.2073L15.1203 10.6213C16.2919 9.44978 16.2919 7.55028 15.1203 6.37872L15.1203 6.37869L15.1223 6.37866Z" fill="currentColor"/>
</g>
<defs>
<clipPath id="clip0_381_1074">
<rect width="16" height="16" fill="white" transform="translate(0 0.5)"/>
</clipPath>
</defs>
</svg>
