<svg viewBox="0 0 512 512" fill="none" xmlns="http://www.w3.org/2000/svg">
<g clip-path="url(#clip0_13_34)">
<path d="M133.838 237.578C141.123 243.537 144.771 252.838 144.771 265.486V329H110.063V270.16C110.063 267.595 109.106 265.349 107.193 263.424C105.28 261.499 103.046 260.537 100.497 260.537H80.2737C77.7204 260.537 75.534 261.499 73.715 263.424C71.8917 265.349 70.9818 267.595 70.9818 270.16V329H36V183H70.9813V230.567C71.5282 230.386 72.8003 230.017 74.808 229.467C76.8104 228.917 79.4531 228.642 82.7333 228.642H105.143C116.984 228.642 126.55 231.623 133.838 237.578ZM243.975 228.642H278.957V290.231C278.957 301.779 275.813 311.128 269.528 318.277C263.242 325.425 254.723 329 243.975 329H209.54C197.516 329 187.903 325.658 180.709 318.965C173.508 312.275 169.913 302.699 169.913 290.232V228.642H204.894V287.482C204.894 290.052 205.804 292.251 207.627 294.081C209.446 295.916 211.633 296.831 214.186 296.831H234.411C236.959 296.831 239.192 295.916 241.106 294.081C243.02 292.251 243.975 290.051 243.975 287.482V228.642ZM305.466 183H340.447V329H305.466V183ZM476 228.642V290.231C476 301.779 472.857 311.128 466.571 318.277C460.286 325.425 451.767 329 441.019 329H406.857C394.649 329 384.946 325.658 377.752 318.965C370.552 312.275 366.957 302.699 366.957 290.232V228.642H401.938V287.482C401.938 290.052 402.847 292.251 404.671 294.081C406.49 295.916 408.676 296.831 411.229 296.831H431.726C434.276 296.831 436.462 295.916 438.285 294.081C440.104 292.251 441.019 290.051 441.019 287.482V228.642H476Z" fill="#1CE783"/>
</g>
<defs>
<clipPath id="clip0_13_34">
<rect width="440" height="146" fill="white" transform="translate(36 183)"/>
</clipPath>
</defs>
</svg>
