<svg width="192" height="82" viewBox="0 0 192 82" fill="none" xmlns="http://www.w3.org/2000/svg">
<path d="M41.76 14.88C42.24 14.88 42.64 15.056 42.96 15.408C43.312 15.728 43.488 16.16 43.488 16.704V20.208C43.488 20.784 43.312 21.232 42.96 21.552C42.608 21.872 42.176 22.032 41.664 22.032L39.12 21.984L34.896 21.936C34.672 21.936 34.464 22.032 34.272 22.224C34.112 22.384 34.016 22.608 33.984 22.896C33.696 27.44 32.528 31.312 30.48 34.512C28.592 37.552 25.584 40.24 21.456 42.576C21.2 42.704 20.832 42.768 20.352 42.768C19.904 42.768 19.504 42.56 19.152 42.144C18.896 41.792 18.672 41.488 18.48 41.232C18.32 40.976 18.112 40.72 17.856 40.464C17.536 40.048 17.168 39.632 16.752 39.216C16.304 38.8 16.08 38.4 16.08 38.016C16.08 37.504 16.416 37.088 17.088 36.768C20.096 35.296 22.368 33.44 23.904 31.2C25.472 28.928 26.416 26.144 26.736 22.848C26.736 22.752 26.736 22.688 26.736 22.656C26.736 22.432 26.656 22.24 26.496 22.08C26.336 21.92 26.096 21.84 25.776 21.84H22.032C21.712 21.84 21.456 21.936 21.264 22.128C21.104 22.288 21.024 22.528 21.024 22.848V28.272C21.024 28.816 20.848 29.264 20.496 29.616C20.144 29.968 19.696 30.144 19.152 30.144H15.6C15.056 30.144 14.608 29.968 14.256 29.616C13.936 29.264 13.776 28.816 13.776 28.272V22.896C13.776 22.608 13.696 22.384 13.536 22.224C13.376 22.032 13.168 21.936 12.912 21.936C12.88 21.936 12.848 21.952 12.816 21.984H8.736L6.288 22.032C5.776 22.032 5.344 21.872 4.992 21.552C4.64 21.232 4.464 20.784 4.464 20.208V16.752C4.464 16.176 4.64 15.728 4.992 15.408C5.376 15.056 5.84 14.88 6.384 14.88L8.448 14.928C9.12 14.96 9.808 14.976 10.512 14.976C11.248 14.976 11.776 14.992 12.096 15.024C12.416 15.024 12.608 15.024 12.672 15.024C13.056 15.024 13.328 14.944 13.488 14.784C13.648 14.624 13.728 14.4 13.728 14.112C13.728 14.112 13.728 14.096 13.728 14.064L13.68 9.744C13.68 9.104 13.664 8.64 13.632 8.352C13.6 8.032 13.584 7.84 13.584 7.776C13.584 7.232 13.744 6.784 14.064 6.432C14.384 6.08 14.864 5.904 15.504 5.904H19.296C19.904 5.904 20.368 6.08 20.688 6.432C21.008 6.752 21.168 7.152 21.168 7.632L21.12 9.792C21.056 11.104 21.024 12.736 21.024 14.688C21.024 14.88 21.056 14.992 21.12 15.024C21.184 15.056 21.28 15.072 21.408 15.072C21.408 15.072 21.68 15.088 22.224 15.12H25.44L26.352 15.072C26.544 15.072 26.672 15.04 26.736 14.976C26.8 14.88 26.832 14.784 26.832 14.688C26.832 14.592 26.816 14.016 26.784 12.96C26.784 11.904 26.768 11.056 26.736 10.416C26.704 9.776 26.672 9.184 26.64 8.64C26.64 8.064 26.624 7.648 26.592 7.392C26.592 7.104 26.592 6.944 26.592 6.912C26.592 6.368 26.752 5.936 27.072 5.616C27.392 5.264 27.856 5.088 28.464 5.088H32.256C32.8 5.088 33.248 5.264 33.6 5.616C33.952 5.936 34.128 6.368 34.128 6.912V14.064C34.128 14.384 34.208 14.624 34.368 14.784C34.528 14.944 34.8 15.024 35.184 15.024C35.216 15.024 35.712 15.024 36.672 15.024C37.632 14.992 38.432 14.96 39.072 14.928L41.76 14.88ZM88.848 6.192C88.432 5.776 88.224 5.312 88.224 4.8C88.224 4.256 88.464 3.792 88.944 3.408L89.712 2.784C90.032 2.528 90.368 2.4 90.72 2.4C91.072 2.4 91.376 2.512 91.632 2.736C91.888 2.928 92.064 3.088 92.16 3.216C92.16 3.216 92.288 3.344 92.544 3.6L94.272 5.568L94.608 6C95.024 6.48 95.232 6.944 95.232 7.392C95.232 7.808 95.056 8.192 94.704 8.544L93.936 9.168C93.552 9.488 93.104 9.648 92.592 9.648C92.08 9.648 91.6 9.36 91.152 8.784C90.672 8.112 89.904 7.248 88.848 6.192ZM84.912 9.456C84.496 9.04 84.288 8.576 84.288 8.064C84.288 7.552 84.528 7.088 85.008 6.672L85.776 6.048C86.096 5.792 86.432 5.664 86.784 5.664C87.136 5.664 87.504 5.824 87.888 6.144C88.144 6.368 88.384 6.608 88.608 6.864C88.672 6.928 88.736 7.008 88.8 7.104C88.896 7.168 88.976 7.248 89.04 7.344L89.904 8.304C90.288 8.688 90.672 9.152 91.056 9.696C91.28 9.984 91.392 10.288 91.392 10.608C91.392 11.024 91.184 11.424 90.768 11.808L89.952 12.432C89.568 12.752 89.12 12.912 88.608 12.912C88.096 12.912 87.616 12.64 87.168 12.096V12.048C86.624 11.28 85.872 10.416 84.912 9.456ZM76.992 17.136C75.616 17.168 72.928 17.248 68.928 17.376C61.92 17.664 58.4 17.808 58.368 17.808C57.824 17.808 57.408 17.632 57.12 17.28C56.896 17.024 56.768 16.672 56.736 16.224C56.576 13.312 56.496 11.824 56.496 11.76C56.496 11.216 56.656 10.784 56.976 10.464C57.328 10.112 57.76 9.936 58.272 9.936C58.304 9.936 58.352 9.936 58.416 9.936C59.728 10.032 61.216 10.08 62.88 10.08H66.864C74.672 10.08 79.792 9.936 82.224 9.648C82.32 9.616 82.416 9.6 82.512 9.6C82.8 9.6 83.072 9.696 83.328 9.888L86.256 11.424C86.896 11.776 87.216 12.304 87.216 13.008C87.216 13.136 87.216 13.264 87.216 13.392C85.68 19.984 82.8 25.68 78.576 30.48C74.352 35.248 69.12 38.72 62.88 40.896C62.464 41.056 62.08 41.056 61.728 40.896C61.376 40.736 61.12 40.512 60.96 40.224C60.032 38.624 59.104 37.264 58.176 36.144C57.92 35.824 57.792 35.52 57.792 35.232C57.792 34.816 58.064 34.496 58.608 34.272C68.176 31.04 74.528 25.744 77.664 18.384C77.824 17.936 77.824 17.616 77.664 17.424C77.536 17.232 77.312 17.136 76.992 17.136ZM128.736 21.504C128.736 20.96 128.4 20.688 127.728 20.688L123.744 20.88C123.264 20.912 122.96 21.152 122.832 21.6C120.272 30.496 115.12 37.008 107.376 41.136C107.152 41.264 106.928 41.328 106.704 41.328C106.128 41.328 105.6 40.928 105.12 40.128C104.832 39.616 104.4 39.072 103.824 38.496C103.28 37.92 102.928 37.584 102.768 37.488C102.64 37.36 102.496 37.216 102.336 37.056C101.952 36.768 101.76 36.464 101.76 36.144C101.76 35.76 102.032 35.456 102.576 35.232C105.552 33.888 108.032 32.176 110.016 30.096C112.032 27.984 113.648 25.424 114.864 22.416C114.928 22.16 114.96 21.968 114.96 21.84C114.96 21.712 114.912 21.6 114.816 21.504C114.656 21.312 114.4 21.216 114.048 21.216C114.016 21.216 111.392 21.312 106.176 21.504C105.728 21.504 105.328 21.344 104.976 21.024C104.656 20.704 104.48 20.288 104.448 19.776C104.256 17.28 104.16 16 104.16 15.936C104.16 15.52 104.304 15.168 104.592 14.88C104.88 14.592 105.264 14.448 105.744 14.448H107.04C110.016 14.448 112.976 14.4 115.92 14.304C116.24 14.272 116.464 14.176 116.592 14.016C116.752 13.824 116.848 13.568 116.88 13.248C117.072 11.872 117.168 9.92 117.168 7.392C117.168 6.848 117.328 6.4 117.648 6.048C118 5.696 118.448 5.52 118.992 5.52L122.88 5.568C123.392 5.568 123.808 5.744 124.128 6.096C124.48 6.448 124.656 6.912 124.656 7.488V8.88C124.656 9.392 124.64 9.888 124.608 10.368C124.576 10.816 124.544 11.264 124.512 11.712C124.512 12.128 124.496 12.48 124.464 12.768C124.432 13.024 124.416 13.168 124.416 13.2C124.416 13.456 124.48 13.68 124.608 13.872C124.768 14.032 125.008 14.112 125.328 14.112C128.976 13.984 131.76 13.856 133.68 13.728C134.608 13.696 135.072 13.68 135.072 13.68C135.616 13.68 136.016 13.856 136.272 14.208C136.464 14.464 136.56 14.816 136.56 15.264C135.952 27.648 134.432 35.344 132 38.352C130.592 40.048 128.368 41.008 125.328 41.232C124.528 41.296 123.872 41.328 123.36 41.328C122.176 41.328 121.504 40.848 121.344 39.888C121.248 39.184 121.024 38.4 120.672 37.536C120.352 36.64 120.16 36.112 120.096 35.952L119.856 35.472C119.696 35.184 119.616 34.928 119.616 34.704C119.616 34.352 119.776 34.096 120.096 33.936C120.288 33.84 120.608 33.792 121.056 33.792C121.504 33.76 121.968 33.744 122.448 33.744C122.96 33.712 123.52 33.664 124.128 33.6C124.736 33.504 125.28 33.328 125.76 33.072C126.272 32.784 126.624 32.352 126.816 31.776C127.648 29.408 128.288 26.064 128.736 21.744C128.736 21.648 128.736 21.568 128.736 21.504ZM161.472 19.968C161.184 20.288 160.832 20.448 160.416 20.448C160 20.448 159.472 20.176 158.832 19.632C157.488 18.448 156.224 17.488 155.04 16.752C154.208 16.208 153.456 15.744 152.784 15.36C152.24 15.008 151.968 14.608 151.968 14.16C151.968 13.84 152.096 13.504 152.352 13.152L155.136 9.648C155.488 9.168 155.888 8.928 156.336 8.928C156.816 8.928 157.376 9.136 158.016 9.552C159.744 10.608 161.168 11.552 162.288 12.384C163.408 13.184 164.096 13.712 164.352 13.968C164.768 14.288 164.976 14.688 164.976 15.168C164.976 15.616 164.816 16.032 164.496 16.416L161.472 19.968ZM153.264 34.752C153.04 34.336 152.928 33.984 152.928 33.696C152.928 32.8 153.44 32.208 154.464 31.92C158.976 30.736 163.872 28.4 169.152 24.912C175.2 20.944 179.312 17.344 181.488 14.112C181.744 13.728 182.032 13.536 182.352 13.536C182.736 13.536 183.04 13.808 183.264 14.352L183.648 15.504C184.128 16.88 184.544 17.904 184.896 18.576C185.248 19.248 185.424 19.76 185.424 20.112C185.424 20.528 185.28 20.896 184.992 21.216C181.92 25.024 177.776 28.624 172.56 32.016C167.664 35.184 162.672 37.648 157.584 39.408C157.36 39.504 157.136 39.552 156.912 39.552C156.272 39.552 155.776 39.232 155.424 38.592L153.264 34.752Z" fill="#1D4ED8"/>
<path d="M8.10395 66.863H8.41595C8.62395 66.863 8.85795 66.785 8.85795 66.538V65.654C8.85795 64.926 8.80595 64.237 8.80595 64.224C8.80595 64.133 8.84495 64.094 8.93595 64.094C9.26095 64.094 9.48195 64.12 9.89795 64.159C10.223 64.185 10.496 64.224 10.496 64.341C10.496 64.393 10.444 64.445 10.418 64.471C10.249 64.679 10.262 64.783 10.262 65.628V66.525C10.262 66.707 10.405 66.863 10.6 66.863H12.888C13.07 66.863 13.213 66.746 13.213 66.486C13.213 66.018 13.187 64.666 13.161 64.276C13.161 64.224 13.148 64.172 13.148 64.12C13.148 64.029 13.226 63.964 13.317 63.964C13.499 63.964 14.227 64.042 14.435 64.055C14.656 64.081 14.838 64.081 14.838 64.198C14.838 64.263 14.786 64.315 14.695 64.406C14.63 64.484 14.617 65.056 14.617 65.498V65.992C14.617 66.122 14.63 66.252 14.63 66.382V66.46C14.63 66.72 14.747 66.863 15.007 66.863H15.358C15.761 66.863 16.619 66.837 16.892 66.837C17.126 66.837 17.217 66.941 17.217 67.448C17.217 68.098 17.178 68.215 16.853 68.215C16.346 68.215 15.852 68.189 15.358 68.189H15.007C14.604 68.189 14.604 68.462 14.604 68.631C14.565 70.893 14.344 72.466 12.316 73.805C12.108 73.948 11.237 74.468 11.016 74.468C10.821 74.468 10.067 73.727 10.067 73.519C10.067 73.415 10.184 73.35 10.275 73.311C12.745 72.284 13.2 71.205 13.2 68.605C13.2 68.384 13.109 68.189 12.862 68.189H10.6C10.418 68.189 10.262 68.332 10.262 68.514V69.749C10.262 70.113 10.288 70.464 10.288 70.828C10.288 71.4 10.223 71.348 9.44295 71.348C8.98795 71.348 8.83195 71.361 8.83195 71.023C8.83195 70.607 8.85795 70.191 8.85795 69.775V68.527C8.85795 68.332 8.68895 68.189 8.50695 68.189H8.10395C7.59695 68.189 7.07695 68.228 6.64795 68.228C6.32295 68.228 6.30995 67.955 6.30995 67.63C6.30995 67.006 6.32295 66.837 6.63495 66.837C7.01195 66.837 7.59695 66.863 8.10395 66.863ZM24.614 65.186H29.151C29.515 65.186 30.113 65.16 30.295 65.16C30.568 65.16 30.75 65.394 30.919 65.563C31.036 65.68 31.374 66.044 31.374 66.174C31.374 66.291 31.27 66.421 31.179 66.928C30.75 69.372 29.788 71.088 27.734 72.518C26.98 73.051 26.109 73.519 25.238 73.857C25.121 73.896 24.939 73.974 24.809 73.974C24.51 73.974 24.042 73.103 24.042 72.882C24.042 72.739 24.159 72.7 24.276 72.674C25.394 72.375 26.616 71.699 27.513 70.958C28.644 70.022 29.424 68.631 29.632 67.175C29.645 67.084 29.671 66.928 29.671 66.85C29.671 66.603 29.45 66.577 29.216 66.577H24.588C24.042 66.577 23.509 66.603 22.963 66.603C22.573 66.603 22.573 66.486 22.573 65.914C22.573 65.303 22.56 65.16 22.937 65.16C23.496 65.16 24.055 65.186 24.614 65.186ZM32.336 62.729C32.479 62.729 33.571 63.834 33.571 64.003C33.571 64.185 33.116 64.601 32.96 64.601C32.895 64.601 32.83 64.523 32.791 64.484C32.453 64.081 32.193 63.795 31.816 63.431C31.777 63.392 31.712 63.34 31.712 63.275C31.712 63.119 32.193 62.729 32.336 62.729ZM31.153 63.73C31.296 63.73 32.401 64.848 32.401 65.004C32.401 65.186 31.946 65.602 31.777 65.602C31.699 65.602 31.66 65.537 31.608 65.485C31.309 65.121 30.984 64.77 30.633 64.445C30.594 64.393 30.529 64.341 30.529 64.276C30.529 64.133 31.01 63.73 31.153 63.73ZM40.724 65.134H44.26C44.468 65.134 44.689 65.134 44.819 65.108C44.897 65.108 45.027 65.082 45.105 65.082C45.378 65.082 45.937 65.797 45.937 65.966C45.937 66.031 45.794 66.239 45.651 66.473C45.573 66.59 45.495 66.72 45.443 66.811C44.923 67.682 44.403 68.501 43.753 69.281C43.688 69.359 43.649 69.424 43.649 69.528C43.649 69.684 43.727 69.762 43.844 69.84C44.559 70.308 45.391 70.945 46.041 71.517C46.353 71.79 46.678 72.089 46.977 72.401C47.029 72.453 47.068 72.505 47.068 72.583C47.068 72.856 46.353 73.623 46.08 73.623C45.937 73.623 45.846 73.532 45.755 73.428C44.819 72.31 44.039 71.686 42.882 70.854C42.778 70.776 42.7 70.737 42.583 70.737C42.414 70.737 42.297 70.867 42.193 70.958C41.231 71.855 40.113 72.635 38.943 73.233C38.826 73.298 38.488 73.48 38.371 73.48C38.098 73.48 37.5 72.609 37.5 72.375C37.5 72.219 37.656 72.154 37.773 72.115C40.074 71.231 42.258 69.242 43.571 67.188C43.636 67.084 43.792 66.863 43.792 66.746C43.792 66.551 43.61 66.525 43.415 66.525H40.724C40.165 66.525 39.606 66.551 39.047 66.551C38.696 66.551 38.722 66.356 38.722 65.758C38.722 65.303 38.709 65.108 39.034 65.108C39.593 65.108 40.152 65.134 40.724 65.134ZM58.014 65.667H60.328C60.562 65.667 60.757 65.654 61.056 65.589C61.095 65.589 61.147 65.576 61.199 65.576C61.459 65.576 62.031 66.291 62.031 66.46C62.031 66.525 61.979 66.616 61.875 66.785C61.771 66.941 61.641 67.162 61.472 67.487C60.198 69.957 58.924 71.855 56.532 73.402C56.246 73.584 55.024 74.351 54.751 74.351C54.465 74.351 53.646 73.714 53.646 73.467C53.646 73.337 53.802 73.272 53.906 73.233C55.999 72.297 57.637 70.971 58.924 69.073C59.145 68.748 59.925 67.487 59.925 67.162C59.925 66.993 59.717 66.98 59.535 66.98H57.065C56.766 66.98 56.688 67.11 56.519 67.344C56.272 67.695 54.777 69.476 54.426 69.476C54.27 69.476 53.321 68.982 53.321 68.709C53.321 68.618 53.373 68.566 53.438 68.527C54.803 67.448 56.311 65.511 56.909 63.873C56.961 63.743 57 63.561 57.117 63.561C57.182 63.561 57.533 63.717 57.806 63.847C57.923 63.912 58.586 64.159 58.586 64.302C58.586 64.367 58.521 64.419 58.469 64.445C58.287 64.51 58.248 64.575 58.027 64.978C57.975 65.082 57.793 65.342 57.793 65.446C57.793 65.589 57.884 65.654 58.014 65.667ZM72.444 63.223C72.561 63.223 73.9 63.821 73.9 64.016C73.9 64.094 73.809 64.146 73.744 64.172C73.536 64.25 73.484 64.315 73.315 64.614C73.276 64.679 73.185 64.835 73.185 64.913C73.185 65.004 73.25 65.043 73.328 65.043C73.588 65.043 74.563 64.77 74.836 64.679C74.927 64.64 75.07 64.601 75.161 64.601C75.382 64.601 75.447 64.809 75.486 64.991C75.525 65.16 75.59 65.511 75.59 65.693C75.59 65.914 75.174 65.966 74.901 66.018C74.082 66.187 73.263 66.33 72.444 66.421C72.236 66.447 72.184 66.473 72.054 66.629C71.976 66.733 71.612 67.292 71.612 67.383C71.612 67.435 71.664 67.474 71.716 67.474C71.794 67.474 71.885 67.435 71.95 67.396C72.392 67.201 72.886 67.058 73.367 67.058C74.199 67.058 74.68 67.409 74.849 68.228C74.875 68.345 74.914 68.449 75.044 68.449C75.2 68.449 76.357 67.825 76.565 67.708C76.656 67.669 76.799 67.578 76.903 67.578C77.15 67.578 77.462 68.579 77.462 68.8C77.462 68.956 77.319 69.008 77.072 69.086C77.02 69.112 76.955 69.125 76.89 69.151C76.37 69.346 75.863 69.567 75.356 69.788C75.122 69.879 75.018 69.957 75.018 70.217V70.386C75.018 70.789 75.031 71.179 75.031 71.582C75.031 72.05 74.966 72.102 74.472 72.102C73.913 72.102 73.679 72.076 73.679 71.738C73.679 71.452 73.705 71.166 73.705 70.893C73.705 70.776 73.666 70.672 73.536 70.672C73.471 70.672 72.132 71.244 72.132 72.05C72.132 72.921 73.393 72.999 74.017 72.999C74.888 72.999 75.59 72.882 76.435 72.674C76.513 72.661 76.604 72.648 76.695 72.648C76.864 72.648 76.955 72.791 76.955 73.532C76.955 73.922 76.942 74.026 76.656 74.091C76.162 74.208 74.719 74.26 74.16 74.26C73.419 74.26 72.795 74.221 72.106 73.922C71.313 73.571 70.806 72.947 70.806 72.063C70.806 70.893 71.755 70.256 72.652 69.723C72.912 69.567 73.185 69.424 73.458 69.294C73.588 69.229 73.692 69.151 73.692 68.995C73.692 68.904 73.653 68.722 73.627 68.631C73.562 68.345 73.354 68.189 73.055 68.189C72.327 68.189 71.131 68.813 70.624 69.333C70.247 69.71 69.805 70.386 69.532 70.854C69.493 70.919 69.441 70.984 69.35 70.984C69.116 70.984 68.245 70.464 68.245 70.23C68.245 70.126 68.349 70.022 68.414 69.944C68.713 69.619 70.598 67.006 70.598 66.759C70.598 66.642 70.494 66.603 70.312 66.603C70.104 66.603 69.805 66.642 69.402 66.642C69.116 66.642 69.064 66.577 69.064 65.914C69.064 65.394 69.116 65.316 69.441 65.316C69.662 65.316 70 65.342 70.377 65.342H70.754C71.092 65.342 71.443 65.329 71.56 65.173C71.781 64.887 72.171 63.873 72.262 63.496C72.288 63.353 72.314 63.223 72.444 63.223ZM90.241 65.121H89.916C89.656 65.121 89.539 65.173 89.383 65.394C89.279 65.55 89.175 65.706 89.045 65.849C89.032 65.875 89.019 65.901 89.019 65.927C89.019 65.992 89.071 66.018 89.123 66.031C89.201 66.044 89.318 66.057 89.318 66.174C89.318 66.252 89.253 66.278 89.162 66.343C89.11 66.369 89.097 66.395 89.071 66.447L89.058 66.486C89.045 66.525 89.045 66.551 89.045 66.577C89.071 66.759 89.227 66.798 89.383 66.798H91.671C92.139 66.798 92.607 66.785 93.088 66.785C93.413 66.785 93.79 66.876 93.79 67.279C93.79 67.396 93.764 67.669 93.764 67.942V68.449C93.764 68.605 93.803 68.839 93.803 68.956C93.803 69.255 93.556 69.229 93.127 69.229C92.724 69.229 92.464 69.255 92.464 68.969C92.464 68.813 92.49 68.618 92.49 68.449V68.189C92.49 67.929 92.386 67.825 92.126 67.825H84.599C84.352 67.825 84.248 67.929 84.248 68.189V68.436C84.248 68.592 84.274 68.8 84.274 68.956C84.274 69.229 84.04 69.216 83.598 69.216C83.143 69.216 82.935 69.229 82.935 68.943C82.935 68.787 82.961 68.592 82.961 68.436V67.942C82.961 67.643 82.948 67.422 82.948 67.292C82.948 66.85 83.299 66.772 83.949 66.772C84.261 66.772 84.638 66.798 85.067 66.798H87.342C87.576 66.798 87.693 66.707 87.68 66.46C87.68 66.369 87.667 66.291 87.654 66.213C87.654 66.174 87.641 66.135 87.641 66.109C87.641 65.94 87.784 65.94 87.914 65.94C88.018 65.94 88.135 65.953 88.239 65.953C88.265 65.953 88.278 65.94 88.278 65.914C88.278 65.901 88.265 65.875 88.252 65.875C88.109 65.823 87.784 65.693 87.784 65.55C87.784 65.472 87.914 65.342 87.966 65.277C88.369 64.796 88.85 63.925 89.084 63.34C89.123 63.262 89.149 63.171 89.253 63.171C89.305 63.171 90.059 63.314 90.189 63.34C90.397 63.366 90.644 63.392 90.644 63.548C90.644 63.652 90.514 63.678 90.436 63.704C90.332 63.73 90.306 63.769 90.254 63.86C90.254 63.886 90.228 63.925 90.228 63.951C90.228 64.081 90.319 64.107 90.436 64.12H92.542C92.971 64.12 93.4 64.094 93.79 64.094C94.089 64.094 94.076 64.237 94.076 64.627C94.076 65.004 94.089 65.16 93.79 65.16C93.413 65.16 92.971 65.121 92.542 65.121H92.217C92.178 65.134 91.97 65.134 91.97 65.342C91.97 65.42 92.009 65.459 92.035 65.537C92.087 65.68 92.178 65.901 92.178 65.966C92.178 66.2 91.346 66.382 91.19 66.382C91.021 66.382 91.008 66.252 90.969 66.122C90.904 65.901 90.813 65.641 90.722 65.433C90.618 65.186 90.501 65.121 90.241 65.121ZM86.263 69.645V69.775C86.263 69.957 86.393 70.087 86.575 70.087H89.916C90.098 70.087 90.228 69.957 90.228 69.775V69.645C90.228 69.463 90.098 69.333 89.916 69.333H86.575C86.393 69.333 86.263 69.463 86.263 69.645ZM86.575 73.402H90.462C90.644 73.402 90.761 73.272 90.761 73.09V72.947C90.761 72.765 90.644 72.635 90.462 72.635H86.575C86.393 72.635 86.263 72.765 86.263 72.947V73.09C86.263 73.272 86.393 73.402 86.575 73.402ZM89.734 71.049H86.51C86.341 71.049 86.263 71.127 86.263 71.296V71.4C86.263 71.582 86.341 71.647 86.51 71.647H90.41C90.761 71.647 91.099 71.634 91.437 71.634C91.84 71.634 92.126 71.712 92.126 72.18C92.126 72.427 92.113 72.687 92.113 72.973V73.493C92.113 73.87 92.139 74.234 92.139 74.598C92.139 74.884 91.983 74.871 91.437 74.871C90.839 74.871 90.748 74.884 90.735 74.572C90.722 74.403 90.618 74.39 90.54 74.39H86.497C86.354 74.39 86.302 74.455 86.289 74.585C86.276 74.871 86.172 74.871 85.587 74.871C85.067 74.871 84.898 74.884 84.898 74.559C84.898 74.195 84.937 73.818 84.937 73.454V69.684C84.937 69.32 84.911 69.06 84.911 68.852C84.911 68.41 85.184 68.332 85.574 68.332C85.951 68.332 86.328 68.358 86.692 68.358H89.734C90.111 68.358 90.488 68.332 90.852 68.332C91.242 68.332 91.528 68.397 91.528 68.852C91.528 69.086 91.502 69.32 91.502 69.554V69.892C91.502 70.113 91.528 70.334 91.528 70.568C91.528 70.997 91.242 71.075 90.878 71.075C90.488 71.075 90.111 71.049 89.734 71.049ZM85.327 63.847C85.314 63.873 85.301 63.899 85.301 63.938C85.301 64.068 85.392 64.094 85.509 64.107H86.575C86.965 64.107 87.342 64.081 87.732 64.081C88.031 64.081 88.018 64.198 88.018 64.614C88.018 65.017 88.031 65.147 87.745 65.147C87.433 65.147 87.121 65.121 86.822 65.121C86.692 65.134 86.562 65.173 86.562 65.329C86.562 65.368 86.575 65.407 86.588 65.446C86.614 65.537 86.757 65.927 86.757 66.005C86.757 66.278 85.99 66.382 85.782 66.382C85.626 66.382 85.6 66.304 85.522 66.005C85.483 65.875 85.431 65.68 85.34 65.433C85.249 65.212 85.158 65.134 84.924 65.121C84.69 65.134 84.599 65.212 84.469 65.407C84.339 65.615 83.858 66.395 83.624 66.395C83.442 66.395 82.675 66.109 82.675 65.849C82.675 65.771 82.753 65.68 82.805 65.615C83.338 64.952 83.871 64.107 84.17 63.301C84.196 63.223 84.235 63.171 84.313 63.171C84.378 63.171 85.34 63.353 85.496 63.379C85.574 63.392 85.717 63.431 85.717 63.535C85.717 63.613 85.613 63.652 85.548 63.678C85.418 63.717 85.392 63.717 85.327 63.847ZM101.109 67.344C101.252 67.344 101.668 67.318 101.772 67.318C102.045 67.318 102.032 67.5 102.032 67.968C102.032 68.423 102.045 68.592 101.772 68.592C101.655 68.592 101.252 68.579 101.109 68.579C100.862 68.592 100.771 68.683 100.771 68.93V70.464C100.771 70.607 100.823 70.737 100.992 70.737C101.031 70.737 101.057 70.724 101.096 70.724C101.226 70.672 101.876 70.438 101.967 70.438C102.24 70.438 102.24 70.906 102.24 71.101C102.24 71.504 102.188 71.556 101.954 71.647C101.135 71.985 99.744 72.414 98.873 72.648C98.561 72.739 98.548 72.752 98.483 72.934C98.444 73.012 98.405 73.09 98.314 73.09C98.184 73.09 98.158 72.973 98.067 72.7C98.002 72.518 97.768 71.816 97.768 71.686C97.768 71.543 97.885 71.517 98.288 71.439C98.483 71.4 98.769 71.361 99.159 71.257C99.406 71.192 99.484 71.075 99.484 70.815V68.93C99.484 68.696 99.393 68.579 99.146 68.566C98.899 68.579 98.613 68.592 98.392 68.592C98.119 68.592 98.132 68.397 98.132 67.968C98.132 67.513 98.119 67.318 98.405 67.318C98.418 67.318 99.068 67.344 99.133 67.344C99.38 67.344 99.484 67.24 99.484 66.993V65.472C99.484 65.225 99.38 65.121 99.133 65.108C98.86 65.121 98.47 65.134 98.21 65.134C97.924 65.134 97.937 64.965 97.937 64.51C97.937 64.042 97.924 63.86 98.21 63.86C98.561 63.86 98.951 63.886 99.354 63.886H100.784C101.174 63.886 101.577 63.86 101.928 63.86C102.214 63.86 102.201 64.042 102.201 64.51C102.201 64.965 102.214 65.134 101.928 65.134C101.811 65.134 101.252 65.121 101.109 65.108C100.862 65.134 100.771 65.225 100.771 65.472V66.993C100.771 67.24 100.862 67.331 101.109 67.344ZM106.387 67.396V67.968C106.413 68.189 106.53 68.306 106.751 68.332H107.31C107.531 68.306 107.648 68.189 107.674 67.968V67.396C107.648 67.175 107.531 67.058 107.31 67.032H106.751C106.53 67.058 106.413 67.175 106.387 67.396ZM104.749 67.032H104.203C103.982 67.058 103.865 67.175 103.839 67.396V67.968C103.865 68.189 103.982 68.306 104.203 68.332H104.749C104.97 68.306 105.087 68.189 105.113 67.968V67.396C105.087 67.175 104.97 67.058 104.749 67.032ZM106.751 65.966H107.31C107.531 65.94 107.648 65.823 107.674 65.602V65.082C107.648 64.861 107.531 64.731 107.31 64.731H106.751C106.53 64.731 106.413 64.861 106.387 65.082V65.602C106.413 65.823 106.53 65.94 106.751 65.966ZM105.113 65.602V65.082C105.087 64.861 104.97 64.731 104.749 64.731H104.203C103.982 64.731 103.865 64.861 103.839 65.082V65.602C103.865 65.823 103.982 65.94 104.203 65.966H104.749C104.97 65.94 105.087 65.823 105.113 65.602ZM104.749 69.437H104.034C103.917 69.437 103.891 69.502 103.839 69.606C103.774 69.749 103.657 69.749 103.241 69.749C102.747 69.749 102.578 69.762 102.578 69.463C102.578 69.112 102.617 68.761 102.617 68.41V64.952C102.617 64.666 102.591 64.393 102.591 64.107C102.591 63.639 102.877 63.561 103.28 63.561C103.592 63.561 103.904 63.574 104.216 63.574H107.297C107.609 63.574 107.921 63.561 108.233 63.561C108.623 63.561 108.922 63.639 108.922 64.107C108.922 64.393 108.896 64.666 108.896 64.952V68.41C108.896 68.761 108.922 69.112 108.922 69.45C108.922 69.749 108.766 69.749 108.285 69.749C107.947 69.749 107.804 69.749 107.7 69.658C107.622 69.58 107.518 69.45 107.414 69.437H106.751C106.491 69.437 106.387 69.541 106.387 69.801V70.399C106.387 70.659 106.491 70.763 106.751 70.763H107.245C107.713 70.763 108.194 70.737 108.675 70.737C108.987 70.737 108.974 70.906 108.974 71.335C108.974 71.764 108.987 71.946 108.675 71.946C108.194 71.946 107.713 71.92 107.245 71.92H106.751C106.491 71.92 106.387 72.024 106.387 72.271V72.856C106.387 73.103 106.491 73.207 106.751 73.207H107.687C108.155 73.207 108.623 73.181 109.091 73.181C109.416 73.181 109.403 73.363 109.403 73.818C109.403 74.299 109.416 74.455 109.078 74.455C108.61 74.455 108.155 74.429 107.687 74.429H102.942C102.474 74.429 102.006 74.455 101.538 74.455C101.2 74.455 101.213 74.273 101.213 73.818C101.213 73.337 101.213 73.181 101.551 73.181C102.019 73.181 102.474 73.207 102.942 73.207H104.749C105.009 73.207 105.113 73.103 105.113 72.856V72.271C105.113 72.024 105.009 71.92 104.749 71.92H104.255C103.774 71.92 103.306 71.946 102.825 71.946C102.5 71.946 102.513 71.764 102.513 71.335C102.513 70.893 102.5 70.737 102.825 70.737C103.306 70.737 103.774 70.763 104.255 70.763H104.749C105.009 70.763 105.113 70.659 105.113 70.399V69.801C105.113 69.541 105.009 69.437 104.749 69.437ZM118.36 68.956C117.853 68.956 117.723 69.671 117.723 70.061C117.723 70.451 117.814 71.166 118.334 71.166C118.854 71.166 119.01 70.503 119.01 70.1C119.01 69.697 118.893 68.956 118.36 68.956ZM118.425 63.444C118.724 63.444 119.127 63.522 119.439 63.548C119.751 63.574 120.141 63.613 120.141 63.73C120.141 63.795 120.102 63.834 120.063 63.873C119.972 63.938 119.868 64.042 119.855 64.419C119.842 64.692 119.842 64.978 119.842 65.251C119.842 65.498 119.985 65.628 120.219 65.628C120.323 65.628 120.83 65.589 120.973 65.589C121.61 65.563 123.001 65.485 123.56 65.485C123.768 65.485 123.859 65.563 123.859 66.148C123.859 66.941 123.703 66.928 123.573 66.928C123.391 66.928 122.416 66.863 121.688 66.863C121.454 66.863 120.245 66.876 120.102 66.915C119.92 66.98 119.855 67.162 119.855 67.344V67.799C119.855 68.163 119.868 68.267 119.985 68.475C120.271 69.008 120.388 69.697 120.388 70.295C120.388 72.388 118.997 74.715 118.425 74.715C118.269 74.715 117.216 74.39 117.216 74.156C117.216 74.052 117.437 73.87 117.515 73.792C118.009 73.324 118.126 73.103 118.451 72.531C118.477 72.466 118.516 72.414 118.516 72.336C118.516 72.297 118.477 72.245 118.425 72.245C118.386 72.245 118.36 72.245 118.321 72.258C118.23 72.284 118.113 72.323 118.022 72.323C116.891 72.323 116.475 71.101 116.475 70.152C116.475 68.956 116.995 67.812 118.308 67.695C118.373 67.682 118.464 67.643 118.464 67.539C118.464 67.058 118.373 66.993 118.23 66.993C118.126 66.993 117.528 67.058 117.372 67.071C116.696 67.136 115.019 67.318 114.395 67.448C114.33 67.461 114.265 67.474 114.2 67.474C113.992 67.474 113.979 67.292 113.94 67.123C113.901 66.902 113.836 66.408 113.836 66.187C113.836 65.927 113.953 65.953 114.59 65.927C114.941 65.914 117.996 65.745 118.113 65.719C118.308 65.667 118.399 65.511 118.399 65.316C118.399 64.913 118.347 64.094 118.269 63.704C118.256 63.665 118.256 63.639 118.256 63.6C118.256 63.496 118.321 63.444 118.425 63.444ZM134.35 72.57C134.35 72.167 133.999 71.803 133.544 71.803C133.258 71.803 132.985 72.011 132.985 72.323C132.985 72.791 133.609 73.012 133.999 73.012C134.246 73.012 134.35 72.778 134.35 72.57ZM135.559 64.146C136.079 64.146 136.833 65.134 136.833 65.355C136.833 65.446 136.69 65.524 136.547 65.628C135.819 66.135 135.273 66.733 134.662 67.37C134.61 67.422 134.532 67.513 134.532 67.591C134.532 67.695 134.636 67.76 134.753 67.76C134.805 67.76 134.87 67.747 134.922 67.734C135.091 67.695 135.286 67.682 135.455 67.682C135.975 67.682 136.586 67.838 137.054 68.072C138.068 68.592 138.601 69.463 138.601 70.594C138.601 72.895 136.56 74.091 134.467 74.091C133.388 74.091 131.854 73.649 131.854 72.323C131.854 71.426 132.647 70.75 133.518 70.75C134.194 70.75 134.883 71.114 135.247 71.673C135.442 71.972 135.481 72.167 135.481 72.505C135.494 72.596 135.533 72.674 135.637 72.674C135.975 72.674 137.21 71.985 137.21 70.672C137.21 69.411 136.144 68.891 135.013 68.891C133.83 68.891 132.933 69.346 132.101 70.165C131.594 70.659 131.126 71.192 130.658 71.725C130.619 71.777 130.58 71.816 130.515 71.816C130.242 71.816 129.579 71.088 129.579 70.88C129.579 70.724 129.774 70.581 129.891 70.49C131.23 69.333 132.738 67.721 133.934 66.408C134.038 66.304 134.272 66.07 134.272 65.94C134.272 65.823 134.155 65.784 134.051 65.784C133.986 65.784 133.817 65.823 133.739 65.836C133.427 65.914 131.594 66.291 131.386 66.291C131.1 66.291 131.061 65.316 131.061 65.095C131.061 64.796 131.074 64.77 131.464 64.77H131.776C132.608 64.77 134.311 64.588 135.065 64.289C135.208 64.237 135.416 64.146 135.559 64.146ZM153.148 65.069C153.278 65.069 154.058 65.381 154.227 65.446C154.383 65.498 154.721 65.602 154.721 65.745C154.721 65.836 154.63 65.888 154.578 65.927C154.435 66.031 154.383 66.096 154.331 66.265C153.694 68.553 152.81 70.529 150.977 72.102C149.859 73.064 148.624 73.636 147.22 74.065C147.142 74.091 147.025 74.13 146.934 74.13C146.674 74.13 146.076 73.259 146.076 73.051C146.076 72.83 146.466 72.791 146.622 72.752C149.495 72.037 151.354 70.36 152.42 67.591C152.667 66.941 152.953 65.979 153.018 65.277C153.031 65.186 153.044 65.069 153.148 65.069ZM149.105 64.744C149.235 64.744 149.313 64.848 149.378 64.939C149.625 65.264 149.846 65.602 150.054 65.94C150.184 66.148 150.782 67.071 150.782 67.266C150.782 67.526 149.911 67.916 149.729 67.916C149.586 67.916 149.534 67.773 149.43 67.591C149.066 66.889 148.715 66.265 148.26 65.615C148.208 65.55 148.117 65.42 148.117 65.342C148.117 65.134 148.91 64.744 149.105 64.744ZM145.829 65.68C145.933 65.68 146.011 65.758 146.063 65.823C146.245 66.044 146.609 66.629 146.778 66.889C146.908 67.097 147.493 68.007 147.493 68.189C147.493 68.462 146.635 68.852 146.453 68.852C146.297 68.852 146.232 68.696 146.167 68.566C145.777 67.812 145.465 67.253 144.984 66.564C144.932 66.499 144.841 66.369 144.841 66.291C144.841 66.07 145.634 65.68 145.829 65.68ZM162.04 68.137H168.02C168.618 68.137 169.463 68.098 169.632 68.098C169.983 68.098 169.996 68.202 169.996 68.917C169.996 69.333 169.983 69.58 169.645 69.58C169.099 69.58 168.553 69.554 168.02 69.554H162.04C161.507 69.554 160.961 69.58 160.415 69.58C160.077 69.58 160.064 69.333 160.064 68.93C160.064 68.202 160.09 68.098 160.428 68.098C160.597 68.098 161.494 68.137 162.04 68.137ZM181.543 66.876V70.581C181.543 70.984 181.556 71.179 181.751 71.179C182.18 71.179 184.741 68.891 185.157 68.462C185.222 68.397 185.313 68.293 185.417 68.293C185.638 68.293 186.08 69.125 186.08 69.333C186.08 69.528 185.573 69.944 185.404 70.087C184.624 70.763 183.844 71.426 183.025 72.037C182.674 72.31 182.115 72.726 181.803 72.999C181.686 73.09 181.556 73.233 181.4 73.233C181.231 73.233 180.672 72.947 180.503 72.843C180.321 72.739 180.087 72.609 180.087 72.375C180.087 72.284 180.139 71.439 180.139 70.815V66.265C180.139 65.823 180.139 65.381 180.087 64.939V64.874C180.087 64.783 180.139 64.744 180.217 64.744C180.295 64.744 180.62 64.796 180.724 64.809C181.4 64.9 181.777 64.939 181.777 65.082C181.777 65.173 181.725 65.199 181.673 65.264C181.582 65.355 181.569 65.472 181.556 65.602C181.543 65.901 181.543 66.551 181.543 66.876ZM177.279 65.017C177.526 65.017 178.189 65.108 178.462 65.147C178.618 65.173 178.787 65.173 178.787 65.303C178.787 65.368 178.709 65.433 178.657 65.485C178.579 65.563 178.592 65.784 178.592 65.901V66.187C178.592 68.878 178.41 71.166 176.343 73.142C176.239 73.233 176.083 73.415 175.94 73.415C175.745 73.415 174.783 72.934 174.783 72.7C174.783 72.609 174.887 72.518 174.952 72.466C176.928 70.828 177.175 69.008 177.175 66.59C177.175 66.2 177.162 65.68 177.123 65.303C177.123 65.264 177.11 65.199 177.11 65.16C177.11 65.043 177.188 65.017 177.279 65.017Z" fill="#272727" fill-opacity="0.3"/>
</svg>
