<svg width="195" height="77" viewBox="0 0 195 77" fill="none" xmlns="http://www.w3.org/2000/svg">
<path d="M43.76 14.88C44.24 14.88 44.64 15.056 44.96 15.408C45.312 15.728 45.488 16.16 45.488 16.704V20.208C45.488 20.784 45.312 21.232 44.96 21.552C44.608 21.872 44.176 22.032 43.664 22.032L41.12 21.984L36.896 21.936C36.672 21.936 36.464 22.032 36.272 22.224C36.112 22.384 36.016 22.608 35.984 22.896C35.696 27.44 34.528 31.312 32.48 34.512C30.592 37.552 27.584 40.24 23.456 42.576C23.2 42.704 22.832 42.768 22.352 42.768C21.904 42.768 21.504 42.56 21.152 42.144C20.896 41.792 20.672 41.488 20.48 41.232C20.32 40.976 20.112 40.72 19.856 40.464C19.536 40.048 19.168 39.632 18.752 39.216C18.304 38.8 18.08 38.4 18.08 38.016C18.08 37.504 18.416 37.088 19.088 36.768C22.096 35.296 24.368 33.44 25.904 31.2C27.472 28.928 28.416 26.144 28.736 22.848C28.736 22.752 28.736 22.688 28.736 22.656C28.736 22.432 28.656 22.24 28.496 22.08C28.336 21.92 28.096 21.84 27.776 21.84H24.032C23.712 21.84 23.456 21.936 23.264 22.128C23.104 22.288 23.024 22.528 23.024 22.848V28.272C23.024 28.816 22.848 29.264 22.496 29.616C22.144 29.968 21.696 30.144 21.152 30.144H17.6C17.056 30.144 16.608 29.968 16.256 29.616C15.936 29.264 15.776 28.816 15.776 28.272V22.896C15.776 22.608 15.696 22.384 15.536 22.224C15.376 22.032 15.168 21.936 14.912 21.936C14.88 21.936 14.848 21.952 14.816 21.984H10.736L8.288 22.032C7.776 22.032 7.344 21.872 6.992 21.552C6.64 21.232 6.464 20.784 6.464 20.208V16.752C6.464 16.176 6.64 15.728 6.992 15.408C7.376 15.056 7.84 14.88 8.384 14.88L10.448 14.928C11.12 14.96 11.808 14.976 12.512 14.976C13.248 14.976 13.776 14.992 14.096 15.024C14.416 15.024 14.608 15.024 14.672 15.024C15.056 15.024 15.328 14.944 15.488 14.784C15.648 14.624 15.728 14.4 15.728 14.112C15.728 14.112 15.728 14.096 15.728 14.064L15.68 9.744C15.68 9.104 15.664 8.64 15.632 8.352C15.6 8.032 15.584 7.84 15.584 7.776C15.584 7.232 15.744 6.784 16.064 6.432C16.384 6.08 16.864 5.904 17.504 5.904H21.296C21.904 5.904 22.368 6.08 22.688 6.432C23.008 6.752 23.168 7.152 23.168 7.632L23.12 9.792C23.056 11.104 23.024 12.736 23.024 14.688C23.024 14.88 23.056 14.992 23.12 15.024C23.184 15.056 23.28 15.072 23.408 15.072C23.408 15.072 23.68 15.088 24.224 15.12H27.44L28.352 15.072C28.544 15.072 28.672 15.04 28.736 14.976C28.8 14.88 28.832 14.784 28.832 14.688C28.832 14.592 28.816 14.016 28.784 12.96C28.784 11.904 28.768 11.056 28.736 10.416C28.704 9.776 28.672 9.184 28.64 8.64C28.64 8.064 28.624 7.648 28.592 7.392C28.592 7.104 28.592 6.944 28.592 6.912C28.592 6.368 28.752 5.936 29.072 5.616C29.392 5.264 29.856 5.088 30.464 5.088H34.256C34.8 5.088 35.248 5.264 35.6 5.616C35.952 5.936 36.128 6.368 36.128 6.912V14.064C36.128 14.384 36.208 14.624 36.368 14.784C36.528 14.944 36.8 15.024 37.184 15.024C37.216 15.024 37.712 15.024 38.672 15.024C39.632 14.992 40.432 14.96 41.072 14.928L43.76 14.88ZM90.848 6.192C90.432 5.776 90.224 5.312 90.224 4.8C90.224 4.256 90.464 3.792 90.944 3.408L91.712 2.784C92.032 2.528 92.368 2.4 92.72 2.4C93.072 2.4 93.376 2.512 93.632 2.736C93.888 2.928 94.064 3.088 94.16 3.216C94.16 3.216 94.288 3.344 94.544 3.6L96.272 5.568L96.608 6C97.024 6.48 97.232 6.944 97.232 7.392C97.232 7.808 97.056 8.192 96.704 8.544L95.936 9.168C95.552 9.488 95.104 9.648 94.592 9.648C94.08 9.648 93.6 9.36 93.152 8.784C92.672 8.112 91.904 7.248 90.848 6.192ZM86.912 9.456C86.496 9.04 86.288 8.576 86.288 8.064C86.288 7.552 86.528 7.088 87.008 6.672L87.776 6.048C88.096 5.792 88.432 5.664 88.784 5.664C89.136 5.664 89.504 5.824 89.888 6.144C90.144 6.368 90.384 6.608 90.608 6.864C90.672 6.928 90.736 7.008 90.8 7.104C90.896 7.168 90.976 7.248 91.04 7.344L91.904 8.304C92.288 8.688 92.672 9.152 93.056 9.696C93.28 9.984 93.392 10.288 93.392 10.608C93.392 11.024 93.184 11.424 92.768 11.808L91.952 12.432C91.568 12.752 91.12 12.912 90.608 12.912C90.096 12.912 89.616 12.64 89.168 12.096V12.048C88.624 11.28 87.872 10.416 86.912 9.456ZM78.992 17.136C77.616 17.168 74.928 17.248 70.928 17.376C63.92 17.664 60.4 17.808 60.368 17.808C59.824 17.808 59.408 17.632 59.12 17.28C58.896 17.024 58.768 16.672 58.736 16.224C58.576 13.312 58.496 11.824 58.496 11.76C58.496 11.216 58.656 10.784 58.976 10.464C59.328 10.112 59.76 9.936 60.272 9.936C60.304 9.936 60.352 9.936 60.416 9.936C61.728 10.032 63.216 10.08 64.88 10.08H68.864C76.672 10.08 81.792 9.936 84.224 9.648C84.32 9.616 84.416 9.6 84.512 9.6C84.8 9.6 85.072 9.696 85.328 9.888L88.256 11.424C88.896 11.776 89.216 12.304 89.216 13.008C89.216 13.136 89.216 13.264 89.216 13.392C87.68 19.984 84.8 25.68 80.576 30.48C76.352 35.248 71.12 38.72 64.88 40.896C64.464 41.056 64.08 41.056 63.728 40.896C63.376 40.736 63.12 40.512 62.96 40.224C62.032 38.624 61.104 37.264 60.176 36.144C59.92 35.824 59.792 35.52 59.792 35.232C59.792 34.816 60.064 34.496 60.608 34.272C70.176 31.04 76.528 25.744 79.664 18.384C79.824 17.936 79.824 17.616 79.664 17.424C79.536 17.232 79.312 17.136 78.992 17.136ZM130.736 21.504C130.736 20.96 130.4 20.688 129.728 20.688L125.744 20.88C125.264 20.912 124.96 21.152 124.832 21.6C122.272 30.496 117.12 37.008 109.376 41.136C109.152 41.264 108.928 41.328 108.704 41.328C108.128 41.328 107.6 40.928 107.12 40.128C106.832 39.616 106.4 39.072 105.824 38.496C105.28 37.92 104.928 37.584 104.768 37.488C104.64 37.36 104.496 37.216 104.336 37.056C103.952 36.768 103.76 36.464 103.76 36.144C103.76 35.76 104.032 35.456 104.576 35.232C107.552 33.888 110.032 32.176 112.016 30.096C114.032 27.984 115.648 25.424 116.864 22.416C116.928 22.16 116.96 21.968 116.96 21.84C116.96 21.712 116.912 21.6 116.816 21.504C116.656 21.312 116.4 21.216 116.048 21.216C116.016 21.216 113.392 21.312 108.176 21.504C107.728 21.504 107.328 21.344 106.976 21.024C106.656 20.704 106.48 20.288 106.448 19.776C106.256 17.28 106.16 16 106.16 15.936C106.16 15.52 106.304 15.168 106.592 14.88C106.88 14.592 107.264 14.448 107.744 14.448H109.04C112.016 14.448 114.976 14.4 117.92 14.304C118.24 14.272 118.464 14.176 118.592 14.016C118.752 13.824 118.848 13.568 118.88 13.248C119.072 11.872 119.168 9.92 119.168 7.392C119.168 6.848 119.328 6.4 119.648 6.048C120 5.696 120.448 5.52 120.992 5.52L124.88 5.568C125.392 5.568 125.808 5.744 126.128 6.096C126.48 6.448 126.656 6.912 126.656 7.488V8.88C126.656 9.392 126.64 9.888 126.608 10.368C126.576 10.816 126.544 11.264 126.512 11.712C126.512 12.128 126.496 12.48 126.464 12.768C126.432 13.024 126.416 13.168 126.416 13.2C126.416 13.456 126.48 13.68 126.608 13.872C126.768 14.032 127.008 14.112 127.328 14.112C130.976 13.984 133.76 13.856 135.68 13.728C136.608 13.696 137.072 13.68 137.072 13.68C137.616 13.68 138.016 13.856 138.272 14.208C138.464 14.464 138.56 14.816 138.56 15.264C137.952 27.648 136.432 35.344 134 38.352C132.592 40.048 130.368 41.008 127.328 41.232C126.528 41.296 125.872 41.328 125.36 41.328C124.176 41.328 123.504 40.848 123.344 39.888C123.248 39.184 123.024 38.4 122.672 37.536C122.352 36.64 122.16 36.112 122.096 35.952L121.856 35.472C121.696 35.184 121.616 34.928 121.616 34.704C121.616 34.352 121.776 34.096 122.096 33.936C122.288 33.84 122.608 33.792 123.056 33.792C123.504 33.76 123.968 33.744 124.448 33.744C124.96 33.712 125.52 33.664 126.128 33.6C126.736 33.504 127.28 33.328 127.76 33.072C128.272 32.784 128.624 32.352 128.816 31.776C129.648 29.408 130.288 26.064 130.736 21.744C130.736 21.648 130.736 21.568 130.736 21.504ZM163.472 19.968C163.184 20.288 162.832 20.448 162.416 20.448C162 20.448 161.472 20.176 160.832 19.632C159.488 18.448 158.224 17.488 157.04 16.752C156.208 16.208 155.456 15.744 154.784 15.36C154.24 15.008 153.968 14.608 153.968 14.16C153.968 13.84 154.096 13.504 154.352 13.152L157.136 9.648C157.488 9.168 157.888 8.928 158.336 8.928C158.816 8.928 159.376 9.136 160.016 9.552C161.744 10.608 163.168 11.552 164.288 12.384C165.408 13.184 166.096 13.712 166.352 13.968C166.768 14.288 166.976 14.688 166.976 15.168C166.976 15.616 166.816 16.032 166.496 16.416L163.472 19.968ZM155.264 34.752C155.04 34.336 154.928 33.984 154.928 33.696C154.928 32.8 155.44 32.208 156.464 31.92C160.976 30.736 165.872 28.4 171.152 24.912C177.2 20.944 181.312 17.344 183.488 14.112C183.744 13.728 184.032 13.536 184.352 13.536C184.736 13.536 185.04 13.808 185.264 14.352L185.648 15.504C186.128 16.88 186.544 17.904 186.896 18.576C187.248 19.248 187.424 19.76 187.424 20.112C187.424 20.528 187.28 20.896 186.992 21.216C183.92 25.024 179.776 28.624 174.56 32.016C169.664 35.184 164.672 37.648 159.584 39.408C159.36 39.504 159.136 39.552 158.912 39.552C158.272 39.552 157.776 39.232 157.424 38.592L155.264 34.752Z" fill="#1D4ED8"/>
<path d="M2.37048 61.863H2.68248C2.89048 61.863 3.12448 61.785 3.12448 61.538V60.654C3.12448 59.926 3.07248 59.237 3.07248 59.224C3.07248 59.133 3.11148 59.094 3.20248 59.094C3.52748 59.094 3.74848 59.12 4.16448 59.159C4.48948 59.185 4.76248 59.224 4.76248 59.341C4.76248 59.393 4.71048 59.445 4.68448 59.471C4.51548 59.679 4.52848 59.783 4.52848 60.628V61.525C4.52848 61.707 4.67148 61.863 4.86648 61.863H7.15448C7.33648 61.863 7.47948 61.746 7.47948 61.486C7.47948 61.018 7.45348 59.666 7.42748 59.276C7.42748 59.224 7.41448 59.172 7.41448 59.12C7.41448 59.029 7.49248 58.964 7.58348 58.964C7.76548 58.964 8.49348 59.042 8.70148 59.055C8.92248 59.081 9.10448 59.081 9.10448 59.198C9.10448 59.263 9.05248 59.315 8.96148 59.406C8.89648 59.484 8.88348 60.056 8.88348 60.498V60.992C8.88348 61.122 8.89648 61.252 8.89648 61.382V61.46C8.89648 61.72 9.01348 61.863 9.27348 61.863H9.62448C10.0275 61.863 10.8855 61.837 11.1585 61.837C11.3925 61.837 11.4835 61.941 11.4835 62.448C11.4835 63.098 11.4445 63.215 11.1195 63.215C10.6125 63.215 10.1185 63.189 9.62448 63.189H9.27348C8.87048 63.189 8.87048 63.462 8.87048 63.631C8.83148 65.893 8.61048 67.466 6.58248 68.805C6.37448 68.948 5.50348 69.468 5.28248 69.468C5.08748 69.468 4.33348 68.727 4.33348 68.519C4.33348 68.415 4.45048 68.35 4.54148 68.311C7.01148 67.284 7.46648 66.205 7.46648 63.605C7.46648 63.384 7.37548 63.189 7.12848 63.189H4.86648C4.68448 63.189 4.52848 63.332 4.52848 63.514V64.749C4.52848 65.113 4.55448 65.464 4.55448 65.828C4.55448 66.4 4.48948 66.348 3.70948 66.348C3.25448 66.348 3.09848 66.361 3.09848 66.023C3.09848 65.607 3.12448 65.191 3.12448 64.775V63.527C3.12448 63.332 2.95548 63.189 2.77348 63.189H2.37048C1.86348 63.189 1.34348 63.228 0.914476 63.228C0.589476 63.228 0.576476 62.955 0.576476 62.63C0.576476 62.006 0.589476 61.837 0.901476 61.837C1.27848 61.837 1.86348 61.863 2.37048 61.863ZM18.8805 60.186H23.4175C23.7815 60.186 24.3795 60.16 24.5615 60.16C24.8345 60.16 25.0165 60.394 25.1855 60.563C25.3025 60.68 25.6405 61.044 25.6405 61.174C25.6405 61.291 25.5365 61.421 25.4455 61.928C25.0165 64.372 24.0545 66.088 22.0005 67.518C21.2465 68.051 20.3755 68.519 19.5045 68.857C19.3875 68.896 19.2055 68.974 19.0755 68.974C18.7765 68.974 18.3085 68.103 18.3085 67.882C18.3085 67.739 18.4255 67.7 18.5425 67.674C19.6605 67.375 20.8825 66.699 21.7795 65.958C22.9105 65.022 23.6905 63.631 23.8985 62.175C23.9115 62.084 23.9375 61.928 23.9375 61.85C23.9375 61.603 23.7165 61.577 23.4825 61.577H18.8545C18.3085 61.577 17.7755 61.603 17.2295 61.603C16.8395 61.603 16.8395 61.486 16.8395 60.914C16.8395 60.303 16.8265 60.16 17.2035 60.16C17.7625 60.16 18.3215 60.186 18.8805 60.186ZM26.6025 57.729C26.7455 57.729 27.8375 58.834 27.8375 59.003C27.8375 59.185 27.3825 59.601 27.2265 59.601C27.1615 59.601 27.0965 59.523 27.0575 59.484C26.7195 59.081 26.4595 58.795 26.0825 58.431C26.0435 58.392 25.9785 58.34 25.9785 58.275C25.9785 58.119 26.4595 57.729 26.6025 57.729ZM25.4195 58.73C25.5625 58.73 26.6675 59.848 26.6675 60.004C26.6675 60.186 26.2125 60.602 26.0435 60.602C25.9655 60.602 25.9265 60.537 25.8745 60.485C25.5755 60.121 25.2505 59.77 24.8995 59.445C24.8605 59.393 24.7955 59.341 24.7955 59.276C24.7955 59.133 25.2765 58.73 25.4195 58.73ZM34.9905 60.134H38.5265C38.7345 60.134 38.9555 60.134 39.0855 60.108C39.1635 60.108 39.2935 60.082 39.3715 60.082C39.6445 60.082 40.2035 60.797 40.2035 60.966C40.2035 61.031 40.0605 61.239 39.9175 61.473C39.8395 61.59 39.7615 61.72 39.7095 61.811C39.1895 62.682 38.6695 63.501 38.0195 64.281C37.9545 64.359 37.9155 64.424 37.9155 64.528C37.9155 64.684 37.9935 64.762 38.1105 64.84C38.8255 65.308 39.6575 65.945 40.3075 66.517C40.6195 66.79 40.9445 67.089 41.2435 67.401C41.2955 67.453 41.3345 67.505 41.3345 67.583C41.3345 67.856 40.6195 68.623 40.3465 68.623C40.2035 68.623 40.1125 68.532 40.0215 68.428C39.0855 67.31 38.3055 66.686 37.1485 65.854C37.0445 65.776 36.9665 65.737 36.8495 65.737C36.6805 65.737 36.5635 65.867 36.4595 65.958C35.4975 66.855 34.3795 67.635 33.2095 68.233C33.0925 68.298 32.7545 68.48 32.6375 68.48C32.3645 68.48 31.7665 67.609 31.7665 67.375C31.7665 67.219 31.9225 67.154 32.0395 67.115C34.3405 66.231 36.5245 64.242 37.8375 62.188C37.9025 62.084 38.0585 61.863 38.0585 61.746C38.0585 61.551 37.8765 61.525 37.6815 61.525H34.9905C34.4315 61.525 33.8725 61.551 33.3135 61.551C32.9625 61.551 32.9885 61.356 32.9885 60.758C32.9885 60.303 32.9755 60.108 33.3005 60.108C33.8595 60.108 34.4185 60.134 34.9905 60.134ZM52.2805 60.667H54.5945C54.8285 60.667 55.0235 60.654 55.3225 60.589C55.3615 60.589 55.4135 60.576 55.4655 60.576C55.7255 60.576 56.2975 61.291 56.2975 61.46C56.2975 61.525 56.2455 61.616 56.1415 61.785C56.0375 61.941 55.9075 62.162 55.7385 62.487C54.4645 64.957 53.1905 66.855 50.7985 68.402C50.5125 68.584 49.2905 69.351 49.0175 69.351C48.7315 69.351 47.9125 68.714 47.9125 68.467C47.9125 68.337 48.0685 68.272 48.1725 68.233C50.2655 67.297 51.9035 65.971 53.1905 64.073C53.4115 63.748 54.1915 62.487 54.1915 62.162C54.1915 61.993 53.9835 61.98 53.8015 61.98H51.3315C51.0325 61.98 50.9545 62.11 50.7855 62.344C50.5385 62.695 49.0435 64.476 48.6925 64.476C48.5365 64.476 47.5875 63.982 47.5875 63.709C47.5875 63.618 47.6395 63.566 47.7045 63.527C49.0695 62.448 50.5775 60.511 51.1755 58.873C51.2275 58.743 51.2665 58.561 51.3835 58.561C51.4485 58.561 51.7995 58.717 52.0725 58.847C52.1895 58.912 52.8525 59.159 52.8525 59.302C52.8525 59.367 52.7875 59.419 52.7355 59.445C52.5535 59.51 52.5145 59.575 52.2935 59.978C52.2415 60.082 52.0595 60.342 52.0595 60.446C52.0595 60.589 52.1505 60.654 52.2805 60.667ZM66.7105 58.223C66.8275 58.223 68.1665 58.821 68.1665 59.016C68.1665 59.094 68.0755 59.146 68.0105 59.172C67.8025 59.25 67.7505 59.315 67.5815 59.614C67.5425 59.679 67.4515 59.835 67.4515 59.913C67.4515 60.004 67.5165 60.043 67.5945 60.043C67.8545 60.043 68.8295 59.77 69.1025 59.679C69.1935 59.64 69.3365 59.601 69.4275 59.601C69.6485 59.601 69.7135 59.809 69.7525 59.991C69.7915 60.16 69.8565 60.511 69.8565 60.693C69.8565 60.914 69.4405 60.966 69.1675 61.018C68.3485 61.187 67.5295 61.33 66.7105 61.421C66.5025 61.447 66.4505 61.473 66.3205 61.629C66.2425 61.733 65.8785 62.292 65.8785 62.383C65.8785 62.435 65.9305 62.474 65.9825 62.474C66.0605 62.474 66.1515 62.435 66.2165 62.396C66.6585 62.201 67.1525 62.058 67.6335 62.058C68.4655 62.058 68.9465 62.409 69.1155 63.228C69.1415 63.345 69.1805 63.449 69.3105 63.449C69.4665 63.449 70.6235 62.825 70.8315 62.708C70.9225 62.669 71.0655 62.578 71.1695 62.578C71.4165 62.578 71.7285 63.579 71.7285 63.8C71.7285 63.956 71.5855 64.008 71.3385 64.086C71.2865 64.112 71.2215 64.125 71.1565 64.151C70.6365 64.346 70.1295 64.567 69.6225 64.788C69.3885 64.879 69.2845 64.957 69.2845 65.217V65.386C69.2845 65.789 69.2975 66.179 69.2975 66.582C69.2975 67.05 69.2325 67.102 68.7385 67.102C68.1795 67.102 67.9455 67.076 67.9455 66.738C67.9455 66.452 67.9715 66.166 67.9715 65.893C67.9715 65.776 67.9325 65.672 67.8025 65.672C67.7375 65.672 66.3985 66.244 66.3985 67.05C66.3985 67.921 67.6595 67.999 68.2835 67.999C69.1545 67.999 69.8565 67.882 70.7015 67.674C70.7795 67.661 70.8705 67.648 70.9615 67.648C71.1305 67.648 71.2215 67.791 71.2215 68.532C71.2215 68.922 71.2085 69.026 70.9225 69.091C70.4285 69.208 68.9855 69.26 68.4265 69.26C67.6855 69.26 67.0615 69.221 66.3725 68.922C65.5795 68.571 65.0725 67.947 65.0725 67.063C65.0725 65.893 66.0215 65.256 66.9185 64.723C67.1785 64.567 67.4515 64.424 67.7245 64.294C67.8545 64.229 67.9585 64.151 67.9585 63.995C67.9585 63.904 67.9195 63.722 67.8935 63.631C67.8285 63.345 67.6205 63.189 67.3215 63.189C66.5935 63.189 65.3975 63.813 64.8905 64.333C64.5135 64.71 64.0715 65.386 63.7985 65.854C63.7595 65.919 63.7075 65.984 63.6165 65.984C63.3825 65.984 62.5115 65.464 62.5115 65.23C62.5115 65.126 62.6155 65.022 62.6805 64.944C62.9795 64.619 64.8645 62.006 64.8645 61.759C64.8645 61.642 64.7605 61.603 64.5785 61.603C64.3705 61.603 64.0715 61.642 63.6685 61.642C63.3825 61.642 63.3305 61.577 63.3305 60.914C63.3305 60.394 63.3825 60.316 63.7075 60.316C63.9285 60.316 64.2665 60.342 64.6435 60.342H65.0205C65.3585 60.342 65.7095 60.329 65.8265 60.173C66.0475 59.887 66.4375 58.873 66.5285 58.496C66.5545 58.353 66.5805 58.223 66.7105 58.223ZM84.5075 60.121H84.1825C83.9225 60.121 83.8055 60.173 83.6495 60.394C83.5455 60.55 83.4415 60.706 83.3115 60.849C83.2985 60.875 83.2855 60.901 83.2855 60.927C83.2855 60.992 83.3375 61.018 83.3895 61.031C83.4675 61.044 83.5845 61.057 83.5845 61.174C83.5845 61.252 83.5195 61.278 83.4285 61.343C83.3765 61.369 83.3635 61.395 83.3375 61.447L83.3245 61.486C83.3115 61.525 83.3115 61.551 83.3115 61.577C83.3375 61.759 83.4935 61.798 83.6495 61.798H85.9375C86.4055 61.798 86.8735 61.785 87.3545 61.785C87.6795 61.785 88.0565 61.876 88.0565 62.279C88.0565 62.396 88.0305 62.669 88.0305 62.942V63.449C88.0305 63.605 88.0695 63.839 88.0695 63.956C88.0695 64.255 87.8225 64.229 87.3935 64.229C86.9905 64.229 86.7305 64.255 86.7305 63.969C86.7305 63.813 86.7565 63.618 86.7565 63.449V63.189C86.7565 62.929 86.6525 62.825 86.3925 62.825H78.8655C78.6185 62.825 78.5145 62.929 78.5145 63.189V63.436C78.5145 63.592 78.5405 63.8 78.5405 63.956C78.5405 64.229 78.3065 64.216 77.8645 64.216C77.4095 64.216 77.2015 64.229 77.2015 63.943C77.2015 63.787 77.2275 63.592 77.2275 63.436V62.942C77.2275 62.643 77.2145 62.422 77.2145 62.292C77.2145 61.85 77.5655 61.772 78.2155 61.772C78.5275 61.772 78.9045 61.798 79.3335 61.798H81.6085C81.8425 61.798 81.9595 61.707 81.9465 61.46C81.9465 61.369 81.9335 61.291 81.9205 61.213C81.9205 61.174 81.9075 61.135 81.9075 61.109C81.9075 60.94 82.0505 60.94 82.1805 60.94C82.2845 60.94 82.4015 60.953 82.5055 60.953C82.5315 60.953 82.5445 60.94 82.5445 60.914C82.5445 60.901 82.5315 60.875 82.5185 60.875C82.3755 60.823 82.0505 60.693 82.0505 60.55C82.0505 60.472 82.1805 60.342 82.2325 60.277C82.6355 59.796 83.1165 58.925 83.3505 58.34C83.3895 58.262 83.4155 58.171 83.5195 58.171C83.5715 58.171 84.3255 58.314 84.4555 58.34C84.6635 58.366 84.9105 58.392 84.9105 58.548C84.9105 58.652 84.7805 58.678 84.7025 58.704C84.5985 58.73 84.5725 58.769 84.5205 58.86C84.5205 58.886 84.4945 58.925 84.4945 58.951C84.4945 59.081 84.5855 59.107 84.7025 59.12H86.8085C87.2375 59.12 87.6665 59.094 88.0565 59.094C88.3555 59.094 88.3425 59.237 88.3425 59.627C88.3425 60.004 88.3555 60.16 88.0565 60.16C87.6795 60.16 87.2375 60.121 86.8085 60.121H86.4835C86.4445 60.134 86.2365 60.134 86.2365 60.342C86.2365 60.42 86.2755 60.459 86.3015 60.537C86.3535 60.68 86.4445 60.901 86.4445 60.966C86.4445 61.2 85.6125 61.382 85.4565 61.382C85.2875 61.382 85.2745 61.252 85.2355 61.122C85.1705 60.901 85.0795 60.641 84.9885 60.433C84.8845 60.186 84.7675 60.121 84.5075 60.121ZM80.5295 64.645V64.775C80.5295 64.957 80.6595 65.087 80.8415 65.087H84.1825C84.3645 65.087 84.4945 64.957 84.4945 64.775V64.645C84.4945 64.463 84.3645 64.333 84.1825 64.333H80.8415C80.6595 64.333 80.5295 64.463 80.5295 64.645ZM80.8415 68.402H84.7285C84.9105 68.402 85.0275 68.272 85.0275 68.09V67.947C85.0275 67.765 84.9105 67.635 84.7285 67.635H80.8415C80.6595 67.635 80.5295 67.765 80.5295 67.947V68.09C80.5295 68.272 80.6595 68.402 80.8415 68.402ZM84.0005 66.049H80.7765C80.6075 66.049 80.5295 66.127 80.5295 66.296V66.4C80.5295 66.582 80.6075 66.647 80.7765 66.647H84.6765C85.0275 66.647 85.3655 66.634 85.7035 66.634C86.1065 66.634 86.3925 66.712 86.3925 67.18C86.3925 67.427 86.3795 67.687 86.3795 67.973V68.493C86.3795 68.87 86.4055 69.234 86.4055 69.598C86.4055 69.884 86.2495 69.871 85.7035 69.871C85.1055 69.871 85.0145 69.884 85.0015 69.572C84.9885 69.403 84.8845 69.39 84.8065 69.39H80.7635C80.6205 69.39 80.5685 69.455 80.5555 69.585C80.5425 69.871 80.4385 69.871 79.8535 69.871C79.3335 69.871 79.1645 69.884 79.1645 69.559C79.1645 69.195 79.2035 68.818 79.2035 68.454V64.684C79.2035 64.32 79.1775 64.06 79.1775 63.852C79.1775 63.41 79.4505 63.332 79.8405 63.332C80.2175 63.332 80.5945 63.358 80.9585 63.358H84.0005C84.3775 63.358 84.7545 63.332 85.1185 63.332C85.5085 63.332 85.7945 63.397 85.7945 63.852C85.7945 64.086 85.7685 64.32 85.7685 64.554V64.892C85.7685 65.113 85.7945 65.334 85.7945 65.568C85.7945 65.997 85.5085 66.075 85.1445 66.075C84.7545 66.075 84.3775 66.049 84.0005 66.049ZM79.5935 58.847C79.5805 58.873 79.5675 58.899 79.5675 58.938C79.5675 59.068 79.6585 59.094 79.7755 59.107H80.8415C81.2315 59.107 81.6085 59.081 81.9985 59.081C82.2975 59.081 82.2845 59.198 82.2845 59.614C82.2845 60.017 82.2975 60.147 82.0115 60.147C81.6995 60.147 81.3875 60.121 81.0885 60.121C80.9585 60.134 80.8285 60.173 80.8285 60.329C80.8285 60.368 80.8415 60.407 80.8545 60.446C80.8805 60.537 81.0235 60.927 81.0235 61.005C81.0235 61.278 80.2565 61.382 80.0485 61.382C79.8925 61.382 79.8665 61.304 79.7885 61.005C79.7495 60.875 79.6975 60.68 79.6065 60.433C79.5155 60.212 79.4245 60.134 79.1905 60.121C78.9565 60.134 78.8655 60.212 78.7355 60.407C78.6055 60.615 78.1245 61.395 77.8905 61.395C77.7085 61.395 76.9415 61.109 76.9415 60.849C76.9415 60.771 77.0195 60.68 77.0715 60.615C77.6045 59.952 78.1375 59.107 78.4365 58.301C78.4625 58.223 78.5015 58.171 78.5795 58.171C78.6445 58.171 79.6065 58.353 79.7625 58.379C79.8405 58.392 79.9835 58.431 79.9835 58.535C79.9835 58.613 79.8795 58.652 79.8145 58.678C79.6845 58.717 79.6585 58.717 79.5935 58.847ZM95.3755 62.344C95.5185 62.344 95.9345 62.318 96.0385 62.318C96.3115 62.318 96.2985 62.5 96.2985 62.968C96.2985 63.423 96.3115 63.592 96.0385 63.592C95.9215 63.592 95.5185 63.579 95.3755 63.579C95.1285 63.592 95.0375 63.683 95.0375 63.93V65.464C95.0375 65.607 95.0895 65.737 95.2585 65.737C95.2975 65.737 95.3235 65.724 95.3625 65.724C95.4925 65.672 96.1425 65.438 96.2335 65.438C96.5065 65.438 96.5065 65.906 96.5065 66.101C96.5065 66.504 96.4545 66.556 96.2205 66.647C95.4015 66.985 94.0105 67.414 93.1395 67.648C92.8275 67.739 92.8145 67.752 92.7495 67.934C92.7105 68.012 92.6715 68.09 92.5805 68.09C92.4505 68.09 92.4245 67.973 92.3335 67.7C92.2685 67.518 92.0345 66.816 92.0345 66.686C92.0345 66.543 92.1515 66.517 92.5545 66.439C92.7495 66.4 93.0355 66.361 93.4255 66.257C93.6725 66.192 93.7505 66.075 93.7505 65.815V63.93C93.7505 63.696 93.6595 63.579 93.4125 63.566C93.1655 63.579 92.8795 63.592 92.6585 63.592C92.3855 63.592 92.3985 63.397 92.3985 62.968C92.3985 62.513 92.3855 62.318 92.6715 62.318C92.6845 62.318 93.3345 62.344 93.3995 62.344C93.6465 62.344 93.7505 62.24 93.7505 61.993V60.472C93.7505 60.225 93.6465 60.121 93.3995 60.108C93.1265 60.121 92.7365 60.134 92.4765 60.134C92.1905 60.134 92.2035 59.965 92.2035 59.51C92.2035 59.042 92.1905 58.86 92.4765 58.86C92.8275 58.86 93.2175 58.886 93.6205 58.886H95.0505C95.4405 58.886 95.8435 58.86 96.1945 58.86C96.4805 58.86 96.4675 59.042 96.4675 59.51C96.4675 59.965 96.4805 60.134 96.1945 60.134C96.0775 60.134 95.5185 60.121 95.3755 60.108C95.1285 60.134 95.0375 60.225 95.0375 60.472V61.993C95.0375 62.24 95.1285 62.331 95.3755 62.344ZM100.654 62.396V62.968C100.68 63.189 100.797 63.306 101.018 63.332H101.577C101.798 63.306 101.915 63.189 101.941 62.968V62.396C101.915 62.175 101.798 62.058 101.577 62.032H101.018C100.797 62.058 100.68 62.175 100.654 62.396ZM99.0155 62.032H98.4695C98.2485 62.058 98.1315 62.175 98.1055 62.396V62.968C98.1315 63.189 98.2485 63.306 98.4695 63.332H99.0155C99.2365 63.306 99.3535 63.189 99.3795 62.968V62.396C99.3535 62.175 99.2365 62.058 99.0155 62.032ZM101.018 60.966H101.577C101.798 60.94 101.915 60.823 101.941 60.602V60.082C101.915 59.861 101.798 59.731 101.577 59.731H101.018C100.797 59.731 100.68 59.861 100.654 60.082V60.602C100.68 60.823 100.797 60.94 101.018 60.966ZM99.3795 60.602V60.082C99.3535 59.861 99.2365 59.731 99.0155 59.731H98.4695C98.2485 59.731 98.1315 59.861 98.1055 60.082V60.602C98.1315 60.823 98.2485 60.94 98.4695 60.966H99.0155C99.2365 60.94 99.3535 60.823 99.3795 60.602ZM99.0155 64.437H98.3005C98.1835 64.437 98.1575 64.502 98.1055 64.606C98.0405 64.749 97.9235 64.749 97.5075 64.749C97.0135 64.749 96.8445 64.762 96.8445 64.463C96.8445 64.112 96.8835 63.761 96.8835 63.41V59.952C96.8835 59.666 96.8575 59.393 96.8575 59.107C96.8575 58.639 97.1435 58.561 97.5465 58.561C97.8585 58.561 98.1705 58.574 98.4825 58.574H101.564C101.876 58.574 102.188 58.561 102.5 58.561C102.89 58.561 103.189 58.639 103.189 59.107C103.189 59.393 103.163 59.666 103.163 59.952V63.41C103.163 63.761 103.189 64.112 103.189 64.45C103.189 64.749 103.033 64.749 102.552 64.749C102.214 64.749 102.071 64.749 101.967 64.658C101.889 64.58 101.785 64.45 101.681 64.437H101.018C100.758 64.437 100.654 64.541 100.654 64.801V65.399C100.654 65.659 100.758 65.763 101.018 65.763H101.512C101.98 65.763 102.461 65.737 102.942 65.737C103.254 65.737 103.241 65.906 103.241 66.335C103.241 66.764 103.254 66.946 102.942 66.946C102.461 66.946 101.98 66.92 101.512 66.92H101.018C100.758 66.92 100.654 67.024 100.654 67.271V67.856C100.654 68.103 100.758 68.207 101.018 68.207H101.954C102.422 68.207 102.89 68.181 103.358 68.181C103.683 68.181 103.67 68.363 103.67 68.818C103.67 69.299 103.683 69.455 103.345 69.455C102.877 69.455 102.422 69.429 101.954 69.429H97.2085C96.7405 69.429 96.2725 69.455 95.8045 69.455C95.4665 69.455 95.4795 69.273 95.4795 68.818C95.4795 68.337 95.4795 68.181 95.8175 68.181C96.2855 68.181 96.7405 68.207 97.2085 68.207H99.0155C99.2755 68.207 99.3795 68.103 99.3795 67.856V67.271C99.3795 67.024 99.2755 66.92 99.0155 66.92H98.5215C98.0405 66.92 97.5725 66.946 97.0915 66.946C96.7665 66.946 96.7795 66.764 96.7795 66.335C96.7795 65.893 96.7665 65.737 97.0915 65.737C97.5725 65.737 98.0405 65.763 98.5215 65.763H99.0155C99.2755 65.763 99.3795 65.659 99.3795 65.399V64.801C99.3795 64.541 99.2755 64.437 99.0155 64.437ZM112.627 63.956C112.12 63.956 111.99 64.671 111.99 65.061C111.99 65.451 112.081 66.166 112.601 66.166C113.121 66.166 113.277 65.503 113.277 65.1C113.277 64.697 113.16 63.956 112.627 63.956ZM112.692 58.444C112.991 58.444 113.394 58.522 113.706 58.548C114.018 58.574 114.408 58.613 114.408 58.73C114.408 58.795 114.369 58.834 114.33 58.873C114.239 58.938 114.135 59.042 114.122 59.419C114.109 59.692 114.109 59.978 114.109 60.251C114.109 60.498 114.252 60.628 114.486 60.628C114.59 60.628 115.097 60.589 115.24 60.589C115.877 60.563 117.268 60.485 117.827 60.485C118.035 60.485 118.126 60.563 118.126 61.148C118.126 61.941 117.97 61.928 117.84 61.928C117.658 61.928 116.683 61.863 115.955 61.863C115.721 61.863 114.512 61.876 114.369 61.915C114.187 61.98 114.122 62.162 114.122 62.344V62.799C114.122 63.163 114.135 63.267 114.252 63.475C114.538 64.008 114.655 64.697 114.655 65.295C114.655 67.388 113.264 69.715 112.692 69.715C112.536 69.715 111.483 69.39 111.483 69.156C111.483 69.052 111.704 68.87 111.782 68.792C112.276 68.324 112.393 68.103 112.718 67.531C112.744 67.466 112.783 67.414 112.783 67.336C112.783 67.297 112.744 67.245 112.692 67.245C112.653 67.245 112.627 67.245 112.588 67.258C112.497 67.284 112.38 67.323 112.289 67.323C111.158 67.323 110.742 66.101 110.742 65.152C110.742 63.956 111.262 62.812 112.575 62.695C112.64 62.682 112.731 62.643 112.731 62.539C112.731 62.058 112.64 61.993 112.497 61.993C112.393 61.993 111.795 62.058 111.639 62.071C110.963 62.136 109.286 62.318 108.662 62.448C108.597 62.461 108.532 62.474 108.467 62.474C108.259 62.474 108.246 62.292 108.207 62.123C108.168 61.902 108.103 61.408 108.103 61.187C108.103 60.927 108.22 60.953 108.857 60.927C109.208 60.914 112.263 60.745 112.38 60.719C112.575 60.667 112.666 60.511 112.666 60.316C112.666 59.913 112.614 59.094 112.536 58.704C112.523 58.665 112.523 58.639 112.523 58.6C112.523 58.496 112.588 58.444 112.692 58.444ZM128.617 67.57C128.617 67.167 128.266 66.803 127.811 66.803C127.525 66.803 127.252 67.011 127.252 67.323C127.252 67.791 127.876 68.012 128.266 68.012C128.513 68.012 128.617 67.778 128.617 67.57ZM129.826 59.146C130.346 59.146 131.1 60.134 131.1 60.355C131.1 60.446 130.957 60.524 130.814 60.628C130.086 61.135 129.54 61.733 128.929 62.37C128.877 62.422 128.799 62.513 128.799 62.591C128.799 62.695 128.903 62.76 129.02 62.76C129.072 62.76 129.137 62.747 129.189 62.734C129.358 62.695 129.553 62.682 129.722 62.682C130.242 62.682 130.853 62.838 131.321 63.072C132.335 63.592 132.868 64.463 132.868 65.594C132.868 67.895 130.827 69.091 128.734 69.091C127.655 69.091 126.121 68.649 126.121 67.323C126.121 66.426 126.914 65.75 127.785 65.75C128.461 65.75 129.15 66.114 129.514 66.673C129.709 66.972 129.748 67.167 129.748 67.505C129.761 67.596 129.8 67.674 129.904 67.674C130.242 67.674 131.477 66.985 131.477 65.672C131.477 64.411 130.411 63.891 129.28 63.891C128.097 63.891 127.2 64.346 126.368 65.165C125.861 65.659 125.393 66.192 124.925 66.725C124.886 66.777 124.847 66.816 124.782 66.816C124.509 66.816 123.846 66.088 123.846 65.88C123.846 65.724 124.041 65.581 124.158 65.49C125.497 64.333 127.005 62.721 128.201 61.408C128.305 61.304 128.539 61.07 128.539 60.94C128.539 60.823 128.422 60.784 128.318 60.784C128.253 60.784 128.084 60.823 128.006 60.836C127.694 60.914 125.861 61.291 125.653 61.291C125.367 61.291 125.328 60.316 125.328 60.095C125.328 59.796 125.341 59.77 125.731 59.77H126.043C126.875 59.77 128.578 59.588 129.332 59.289C129.475 59.237 129.683 59.146 129.826 59.146ZM140.304 61.863H140.616C140.824 61.863 141.058 61.785 141.058 61.538V60.654C141.058 59.926 141.006 59.237 141.006 59.224C141.006 59.133 141.045 59.094 141.136 59.094C141.461 59.094 141.682 59.12 142.098 59.159C142.423 59.185 142.696 59.224 142.696 59.341C142.696 59.393 142.644 59.445 142.618 59.471C142.449 59.679 142.462 59.783 142.462 60.628V61.525C142.462 61.707 142.605 61.863 142.8 61.863H145.088C145.27 61.863 145.413 61.746 145.413 61.486C145.413 61.018 145.387 59.666 145.361 59.276C145.361 59.224 145.348 59.172 145.348 59.12C145.348 59.029 145.426 58.964 145.517 58.964C145.699 58.964 146.427 59.042 146.635 59.055C146.856 59.081 147.038 59.081 147.038 59.198C147.038 59.263 146.986 59.315 146.895 59.406C146.83 59.484 146.817 60.056 146.817 60.498V60.992C146.817 61.122 146.83 61.252 146.83 61.382V61.46C146.83 61.72 146.947 61.863 147.207 61.863H147.558C147.961 61.863 148.819 61.837 149.092 61.837C149.326 61.837 149.417 61.941 149.417 62.448C149.417 63.098 149.378 63.215 149.053 63.215C148.546 63.215 148.052 63.189 147.558 63.189H147.207C146.804 63.189 146.804 63.462 146.804 63.631C146.765 65.893 146.544 67.466 144.516 68.805C144.308 68.948 143.437 69.468 143.216 69.468C143.021 69.468 142.267 68.727 142.267 68.519C142.267 68.415 142.384 68.35 142.475 68.311C144.945 67.284 145.4 66.205 145.4 63.605C145.4 63.384 145.309 63.189 145.062 63.189H142.8C142.618 63.189 142.462 63.332 142.462 63.514V64.749C142.462 65.113 142.488 65.464 142.488 65.828C142.488 66.4 142.423 66.348 141.643 66.348C141.188 66.348 141.032 66.361 141.032 66.023C141.032 65.607 141.058 65.191 141.058 64.775V63.527C141.058 63.332 140.889 63.189 140.707 63.189H140.304C139.797 63.189 139.277 63.228 138.848 63.228C138.523 63.228 138.51 62.955 138.51 62.63C138.51 62.006 138.523 61.837 138.835 61.837C139.212 61.837 139.797 61.863 140.304 61.863ZM156.307 63.137H162.287C162.885 63.137 163.73 63.098 163.899 63.098C164.25 63.098 164.263 63.202 164.263 63.917C164.263 64.333 164.25 64.58 163.912 64.58C163.366 64.58 162.82 64.554 162.287 64.554H156.307C155.774 64.554 155.228 64.58 154.682 64.58C154.344 64.58 154.331 64.333 154.331 63.93C154.331 63.202 154.357 63.098 154.695 63.098C154.864 63.098 155.761 63.137 156.307 63.137ZM178.459 59.653C178.615 59.653 179.59 60.875 179.59 61.031C179.59 61.226 179.083 61.564 178.927 61.564C178.836 61.564 178.784 61.473 178.732 61.408C178.472 61.005 178.212 60.693 177.913 60.329C177.874 60.277 177.796 60.199 177.796 60.134C177.796 59.991 178.329 59.653 178.459 59.653ZM179.811 58.847C179.954 58.847 180.942 60.056 180.942 60.199C180.942 60.407 180.435 60.758 180.279 60.758C180.201 60.758 180.149 60.667 180.097 60.602C179.824 60.225 179.551 59.861 179.252 59.51C179.213 59.458 179.148 59.393 179.148 59.341C179.148 59.172 179.681 58.847 179.811 58.847ZM172.232 64.476V65.568C172.232 67.141 172.492 67.115 174.273 67.115C175.56 67.115 177.367 67.089 178.615 66.842C178.654 66.842 178.706 66.829 178.745 66.829C178.992 66.829 179.005 67.154 179.005 67.544C179.005 67.934 179.005 68.259 178.589 68.311C177.705 68.441 175.053 68.454 174.039 68.454C173.168 68.454 171.712 68.506 171.153 67.7C170.828 67.219 170.815 66.205 170.815 65.633V61.226C170.815 60.654 170.815 59.978 170.75 59.419V59.315C170.75 59.198 170.841 59.172 170.893 59.172C171.023 59.172 171.894 59.354 172.076 59.393C172.245 59.432 172.466 59.458 172.466 59.588C172.466 59.731 172.271 59.77 172.245 60.043C172.232 60.134 172.232 60.381 172.232 60.615V62.513C172.232 62.734 172.401 62.838 172.609 62.838C174 62.838 176.275 62.123 177.458 61.395C177.51 61.369 177.601 61.304 177.666 61.304C177.783 61.304 178.017 61.655 178.173 61.902C178.212 61.954 178.238 61.993 178.264 62.032C178.342 62.136 178.615 62.513 178.615 62.63C178.615 62.734 178.498 62.76 178.42 62.76C178.368 62.76 178.316 62.747 178.251 62.747C178.225 62.747 178.186 62.734 178.16 62.734C178.004 62.734 177.835 62.812 177.692 62.877C176.015 63.579 174.481 64.021 172.648 64.112C172.414 64.125 172.232 64.229 172.232 64.476ZM188.391 60.134H191.927C192.135 60.134 192.356 60.134 192.486 60.108C192.564 60.108 192.694 60.082 192.772 60.082C193.045 60.082 193.604 60.797 193.604 60.966C193.604 61.031 193.461 61.239 193.318 61.473C193.24 61.59 193.162 61.72 193.11 61.811C192.59 62.682 192.07 63.501 191.42 64.281C191.355 64.359 191.316 64.424 191.316 64.528C191.316 64.684 191.394 64.762 191.511 64.84C192.226 65.308 193.058 65.945 193.708 66.517C194.02 66.79 194.345 67.089 194.644 67.401C194.696 67.453 194.735 67.505 194.735 67.583C194.735 67.856 194.02 68.623 193.747 68.623C193.604 68.623 193.513 68.532 193.422 68.428C192.486 67.31 191.706 66.686 190.549 65.854C190.445 65.776 190.367 65.737 190.25 65.737C190.081 65.737 189.964 65.867 189.86 65.958C188.898 66.855 187.78 67.635 186.61 68.233C186.493 68.298 186.155 68.48 186.038 68.48C185.765 68.48 185.167 67.609 185.167 67.375C185.167 67.219 185.323 67.154 185.44 67.115C187.741 66.231 189.925 64.242 191.238 62.188C191.303 62.084 191.459 61.863 191.459 61.746C191.459 61.551 191.277 61.525 191.082 61.525H188.391C187.832 61.525 187.273 61.551 186.714 61.551C186.363 61.551 186.389 61.356 186.389 60.758C186.389 60.303 186.376 60.108 186.701 60.108C187.26 60.108 187.819 60.134 188.391 60.134Z" fill="#272727" fill-opacity="0.3"/>
</svg>
