<svg viewBox="0 0 216 35" fill="none" xmlns="http://www.w3.org/2000/svg">
<path d="M6.67773 12.4707H8.9043L13.3203 2.30273C13.5182 1.88216 13.7038 1.56055 13.877 1.33789C14.248 0.818359 14.9655 0.558594 16.0293 0.558594H26.9023C28.4115 0.583333 28.7949 1.39974 28.0527 3.00781L23.9336 12.4707H28.5723L32.9883 2.30273C33.1862 1.88216 33.3594 1.56055 33.5078 1.33789C33.8789 0.818359 34.5964 0.558594 35.6602 0.558594H46.5703C48.0547 0.583333 48.4258 1.39974 47.6836 3.00781L43.6016 12.4707H46.9785C47.1764 12.4707 47.3743 12.5078 47.5723 12.582C48.265 12.8542 48.4134 13.4232 48.0176 14.2891L44.6406 22.1191C44.5664 22.2428 44.4922 22.3542 44.418 22.4531C43.9974 22.9974 43.2181 23.2695 42.0801 23.2695H38.9258L34.7324 32.9922C34.4603 33.5365 34.1882 33.9447 33.916 34.2168C33.4954 34.6374 32.6543 34.8477 31.3926 34.8477H20.8535C19.765 34.724 19.431 33.9818 19.8516 32.6211L23.8965 23.2695H19.2578L17.959 26.2383C17.6868 26.7826 17.4271 27.2031 17.1797 27.5C16.7591 27.8958 15.918 28.0938 14.6562 28.0938H4.11719C2.75651 28.0938 2.41016 27.3516 3.07812 25.8672L4.22852 23.2695H3.85742H3.82031H3.7832H3.74609H3.70898H3.67188H3.63477H3.59766H3.56055H3.52344H3.44922H3.41211H3.375H3.33789H3.30078H3.26367H3.22656H3.18945H3.15234H3.11523H3.07812H3.04102H3.00391H2.9668H2.92969H2.89258H2.85547H2.81836C2.54622 23.2695 2.27409 23.2077 2.00195 23.084C1.28451 22.6882 1.14844 21.9954 1.59375 21.0059L4.82227 13.5098C4.89648 13.3613 4.95833 13.2376 5.00781 13.1387C5.25521 12.7181 5.81185 12.4954 6.67773 12.4707ZM54.2891 0.558594H82.752C82.9004 0.533854 83.0983 0.521484 83.3457 0.521484H94.2188C95.7279 0.546224 96.1113 1.375 95.3691 3.00781L82.3809 32.9551C82.1087 33.4993 81.849 33.9199 81.6016 34.2168C81.181 34.6126 80.3398 34.8105 79.0781 34.8105H68.5391C67.4258 34.6868 67.0794 33.9447 67.5 32.584L76.7031 11.3574H50.4668C50.1699 11.3327 49.8978 11.2708 49.6504 11.1719C48.9329 10.776 48.7845 10.0833 49.2051 9.09375L52.4707 1.59766C52.5449 1.44922 52.6068 1.32552 52.6562 1.22656C52.9036 0.80599 53.4479 0.583333 54.2891 0.558594ZM98.3008 2.26562C98.474 1.84505 98.6471 1.52344 98.8203 1.30078C99.1914 0.80599 99.9089 0.558594 100.973 0.558594H105.871C107.355 0.583333 107.727 1.39974 106.984 3.00781L102.717 12.9531C102.469 13.4974 102.21 13.918 101.938 14.2148C101.517 14.6107 100.676 14.8086 99.4141 14.8086H94.8125C93.724 14.6849 93.39 13.9427 93.8105 12.582L98.3008 2.26562ZM109.768 2.26562C109.965 1.84505 110.139 1.52344 110.287 1.30078C110.683 0.80599 111.4 0.558594 112.439 0.558594H117.375C118.859 0.583333 119.23 1.39974 118.488 3.00781L114.221 12.9531C113.949 13.4974 113.676 13.918 113.404 14.2148C112.984 14.6107 112.155 14.8086 110.918 14.8086H106.316C105.228 14.6849 104.894 13.9427 105.314 12.582L109.768 2.26562ZM125.205 12.4336H130.586L135.002 2.30273C135.175 1.88216 135.348 1.56055 135.521 1.33789C135.893 0.818359 136.61 0.558594 137.674 0.558594H148.547C150.056 0.583333 150.439 1.39974 149.697 3.00781L145.615 12.4336H165.506C165.704 12.4336 165.902 12.4707 166.1 12.5449C166.792 12.8171 166.941 13.3861 166.545 14.252L166.062 15.3652C166.013 15.5384 165.939 15.724 165.84 15.9219C165.444 16.8125 164.863 18.1484 164.096 19.9297C163.675 20.8945 163.366 21.612 163.168 22.082C163.143 22.1315 163.106 22.181 163.057 22.2305L158.344 32.9922C158.096 33.5365 157.837 33.957 157.564 34.2539C157.144 34.6497 156.303 34.8477 155.041 34.8477H144.502C143.389 34.7487 143.042 34.0065 143.463 32.6211L147.582 23.2324H140.939L136.709 32.9922C136.437 33.5365 136.177 33.9447 135.93 34.2168C135.509 34.6374 134.668 34.8477 133.406 34.8477H122.867C121.754 34.724 121.408 33.9818 121.828 32.6211L125.91 23.2324H121.346C121.074 23.2324 120.801 23.1706 120.529 23.0469C119.812 22.651 119.676 21.9583 120.121 20.9688L123.35 13.4727C123.424 13.3242 123.486 13.2005 123.535 13.1016C123.783 12.681 124.339 12.4583 125.205 12.4336ZM199.275 2.30273C199.671 1.46159 200.079 0.942057 200.5 0.744141C200.871 0.620443 201.354 0.558594 201.947 0.558594H212.857C214.367 0.558594 214.75 1.35026 214.008 2.93359C214.008 2.98307 213.995 3.00781 213.971 3.00781L201.02 32.9922C200.574 33.9076 200.067 34.4642 199.498 34.6621C199.102 34.7858 198.496 34.8477 197.68 34.8477H187.141C185.904 34.8477 185.533 34.2044 186.027 32.918C186.052 32.7943 186.089 32.6953 186.139 32.6211L199.275 2.30273ZM172.928 0.558594H196.01C196.727 0.558594 197.135 0.855469 197.234 1.44922C197.259 1.74609 197.197 2.05534 197.049 2.37695L193.672 10.207C193.301 10.8255 192.781 11.1966 192.113 11.3203C191.816 11.3698 191.482 11.3945 191.111 11.3945L169.068 11.3574C168.301 11.3574 167.831 11.0358 167.658 10.3926C167.584 9.99674 167.646 9.5638 167.844 9.09375L171.109 1.59766C171.332 1.10286 171.604 0.79362 171.926 0.669922C172.198 0.620443 172.532 0.583333 172.928 0.558594Z" fill="black" fill-opacity="0.82"/>
</svg>
