<svg width="16" height="16" viewBox="0 0 16 16" fill="none" xmlns="http://www.w3.org/2000/svg">
<g clip-path="url(#clip0_34_8)">
<path d="M0.369217 9.05997C0.00684205 8.52685 -0.0655954 7.84807 0.176123 7.25047C0.716342 6.14844 1.62131 5.26738 2.7374 4.75688C3.54547 4.35503 4.42075 4.10582 5.31925 4.02166C4.92775 4.50341 4.53581 5.01741 4.14344 5.56375C3.34487 6.773 2.66131 8.05438 2.10172 9.3911L1.86084 9.93122C1.25747 9.88129 0.709092 9.561 0.369217 9.05997ZM1.2869 11.8628C0.710405 12.6588 0.296623 13.5608 0.0693108 14.517C-0.0724079 15.1383 0.316373 15.7569 0.937717 15.8986C1.10681 15.9372 1.2824 15.9371 1.4515 15.8985C2.40625 15.6708 3.30678 15.2573 4.10172 14.6815C4.88009 13.9035 4.8804 12.6418 4.10237 11.8634C3.32437 11.0851 2.06265 11.0848 1.28428 11.8628H1.2869ZM6.55347 13.8402L6.00937 14.0817V14.2768C6.01069 14.7441 6.19784 15.1918 6.52959 15.5209C6.84515 15.8278 7.26787 15.9997 7.70806 16C9.27203 15.9775 10.5401 14.5535 11.2056 13.2278C11.6133 12.4073 11.8634 11.5175 11.9428 10.6048C11.4562 11.0029 10.9344 11.401 10.3775 11.7991C9.16872 12.5979 7.88753 13.2813 6.55081 13.8402L6.55347 13.8402ZM15.9626 1.96335C15.8743 4.85175 13.7947 7.71629 9.60447 10.7222C8.46415 11.4613 7.26119 12.099 6.00937 12.6279V12.2543C6.00319 10.9743 4.96703 9.93807 3.68697 9.93191H3.3134C3.84347 8.68007 4.48225 7.4771 5.22244 6.33682C8.22097 2.15644 11.0808 0.0742221 13.9646 -0.0199966C15.4018 -0.0199966 15.9626 0.565253 15.9626 1.96335ZM11.9813 5.61882C11.9813 4.70266 11.2386 3.95994 10.3224 3.95994C9.40622 3.95994 8.66353 4.70263 8.66353 5.61882C8.66353 6.53497 9.40622 7.27769 10.3224 7.27769C11.2386 7.27769 11.9813 6.53497 11.9813 5.61882Z" fill="currentColor"/>
</g>
<defs>
<clipPath id="clip0_34_8">
<rect width="16" height="16" fill="white"/>
</clipPath>
</defs>
</svg>
