<svg viewBox="0 0 512 512" fill="none" xmlns="http://www.w3.org/2000/svg">
<g clip-path="url(#clip0_13_19)">
<path d="M395.127 49.71C393.657 49.71 392.285 49.7754 390.881 49.906C390.881 49.906 122.034 76.7907 122.034 76.856C100.572 78.9467 83.814 97.0767 83.814 119.094V292.881C83.814 390.587 163.031 469.738 260.671 469.738C358.312 469.738 437.529 390.587 437.529 292.881V92.2094C437.529 68.722 418.549 49.7427 395.127 49.7427V49.71ZM402.151 292.848C402.151 371.019 338.843 434.393 260.671 434.393C182.5 434.393 119.192 371.019 119.192 292.848V125.301C119.192 117.951 124.745 111.907 131.899 111.189L386.569 85.7414C387.059 85.676 387.549 85.676 388.039 85.676C395.813 85.676 402.151 92.0134 402.151 99.8534V292.881V292.848Z" fill="black"/>
<path d="M334.955 138.727C334.465 138.727 334.008 138.727 333.518 138.792L184.983 153.655C177.829 154.341 172.21 160.385 172.21 167.735V292.881C172.21 341.717 211.802 381.309 260.639 381.309C309.475 381.309 349.067 341.717 349.067 292.881V152.871C349.067 145.064 342.73 138.727 334.923 138.727H334.955Z" fill="black"/>
</g>
<defs>
<clipPath id="clip0_13_19">
<rect width="490" height="490" fill="white" transform="translate(11 11)"/>
</clipPath>
</defs>
</svg>
